<?xml version="1.0" encoding="utf-8"?>
<!-- Generator: Adobe Illustrator 25.0.0, SVG Export Plug-In . SVG Version: 6.00 Build 0)  -->
<svg version="1.1" id="Livello_1" xmlns="http://www.w3.org/2000/svg" xmlns:xlink="http://www.w3.org/1999/xlink" x="0px" y="0px"
	 viewBox="0 0 530 500" style="enable-background:new 0 0 530 500;" xml:space="preserve">
<style type="text/css">
	.st0{fill:#407BFF;}
	.st1{opacity:0.9;}
	.st2{fill:#EBF1FC;}
	.st3{fill:#EBEBEB;}
	.st4{fill:#FAFAFA;}
	.st5{fill:#F0F0F0;}
	.st6{fill:#E6E6E6;}
	.st7{fill:#F5F5F5;}
	.st8{fill:#E0E0E0;}
	.st9{fill:#FFFFFF;}
	.st10{opacity:0.6;fill:#FFFFFF;enable-background:new    ;}
	.st11{fill:#FFB573;}
	.st12{opacity:0.1;enable-background:new    ;}
	.st13{fill:#263238;}
	.st14{opacity:0.2;enable-background:new    ;}
	.st15{opacity:0.7;fill:#FFFFFF;enable-background:new    ;}
	.st16{opacity:0.2;}
	.st17{opacity:0.8;}
	.st18{fill:#ED893E;}
	.st19{opacity:0.9;fill:#FFFFFF;enable-background:new    ;}
	.st20{opacity:0.7;}
	.st21{fill:#FFC3BD;}
	.st22{fill:#2E353A;}
	.st23{fill:#BA4D3C;}
	.st24{opacity:0.5;fill:#FFFFFF;enable-background:new    ;}
	.st25{fill:#D4827D;}
	.st26{opacity:0.8;fill:#FFFFFF;enable-background:new    ;}
	.st27{opacity:0.3;enable-background:new    ;}
	.st28{fill:#7F3E3B;}
	.st29{opacity:0.4;fill:#FFFFFF;enable-background:new    ;}
	.st30{fill:#630F0F;}
	.st31{fill:#FF887B;}
	.st32{opacity:0.4;}
	.st33{opacity:0.7;enable-background:new    ;}
</style>
<g id="freepik--background-simple--inject-12">
	<path class="st0" d="M122,12.7c-42.8,17-85.8,62.5-99,110S14.1,223,31,270.3s45.8,89,80.2,123.5c46.4,46.5,107.7,79.7,169.7,80.8
		c60.2,1.1,116.6-37.9,160.3-81.3s73.9-104.1,78.1-169.3c1.6-25.5-1-52.7-14.3-74.3c-18.6-30.2-54.7-43.2-87.3-40.1
		s-50.3,17.6-77.9,36.1C324.3,113.8,262.4-43.2,122,12.7z"/>
	<g class="st1">
		<path class="st2" d="M122,12.7c-42.8,17-85.8,62.5-99,110S14.1,223,31,270.3s45.8,89,80.2,123.5c46.4,46.5,107.7,79.7,169.7,80.8
			c60.2,1.1,116.6-37.9,160.3-81.3s73.9-104.1,78.1-169.3c1.6-25.5-1-52.7-14.3-74.3c-18.6-30.2-54.7-43.2-87.3-40.1
			s-50.3,17.6-77.9,36.1C324.3,113.8,262.4-43.2,122,12.7z"/>
	</g>
</g>
<g id="freepik--background-complete--inject-12">
	<rect x="337.5" y="401.2" class="st3" width="8.7" height="0.2"/>
	<rect x="314.2" y="158.7" class="st4" width="147.7" height="223.7"/>
	<rect x="325.1" y="180.5" class="st3" width="128.7" height="201.9"/>
	<rect x="390.2" y="185.3" class="st4" width="60.6" height="192.4"/>
	<rect x="328.2" y="185.7" class="st4" width="60.6" height="192.4"/>
	<rect x="378.8" y="164.8" class="st5" width="19.5" height="6.6"/>
	<rect x="283.9" y="259.9" class="st6" width="10.2" height="19.6"/>
	<path class="st7" d="M289.1,264c1.8,0,3.2,1.4,3.2,3.2s-1.4,3.2-3.2,3.2s-3.2-1.4-3.2-3.2S287.3,264,289.1,264L289.1,264z"/>
	<polygon class="st6" points="290.8,267.7 287.4,267.7 289.2,265.3 	"/>
	<path class="st7" d="M289.1,270.8c1.8,0,3.2,1.4,3.2,3.2s-1.4,3.2-3.2,3.2s-3.2-1.4-3.2-3.2S287.3,270.8,289.1,270.8L289.1,270.8z"
		/>
	<polygon class="st6" points="290.8,273.2 287.4,273.2 289.2,275.6 	"/>
	<path class="st3" d="M286.8,292.1c1.1-2.7,3.6-4.3,5.8-3.7s4.1,3.3,4.3,6.4c1.5-1.5,3.9-1.6,5.5-0.2c1.8,1.8,2.6,4.3,2.2,6.8
		c1.8-1.8,4.7-1.1,5.9,1.5s0.3,6.4-1.8,7.7c1.4,0.1,2.6,1.9,2.6,3.8s-1.3,3.6-2.7,3.6c1.4,0,2.7,1.6,2.9,3.5s-0.8,3.8-2.2,4.3
		c1.4,0.8,1.8,3.8,0.6,5.2s-3.4,0.5-3.8-1.5c-0.1,0.4-0.5,0.6-0.8,0.5c-0.2,0-0.3-0.1-0.4-0.3c-0.3-0.5-0.2-1.2,0.2-1.6
		c-0.6,1.2-2.3,0.6-2.5-0.8c0.5,3.3-2.6,6.4-4.9,4.9c0.5,1.4-0.1,3-1.4,3.7c-1.2,0.4-2.4-0.2-3.5-0.9s-2.2-1.5-3.5-1.5
		c-1.1,0.2-2.1,0.5-3.1,1.1c-3.2,1.3-7,0.1-9.4-3.1c-1.7,2.9-5.7,2.1-6.7-1.3c-0.3,1.6-1.4,2.9-2.6,3c-1.4-0.1-2.6-1.2-2.9-2.6
		c0,0.7-0.1,1.5-0.1,2.2c-2.3,0.7-4.6-3.1-3.6-6c-1.7,0-3.2-1.8-3.5-4s1-4.5,2.6-5c-2.8-1-4.9-4.6-4.9-8.4s2-7.5,4.8-8.5
		c1.1-0.5,2.4-0.3,3.2,0.5c0.9,1,1,3.1,0,3.9c-0.8-3.4,0.4-7.5,2.8-9.2s5.6-0.8,7.3,2c-0.8-1.6-0.8-3.5,0-5.1
		c0.6-1.4,2.2-2.1,3.6-1.5c0.3-2.3,2.2-4.1,3.9-3.8s3.1,2.8,3,5.1c0.2-2,2.6-2.6,3.3-0.8C288.1,291.5,286.8,292.1,286.8,292.1z"/>
	<path class="st4" d="M286.2,314.2c0.7-0.7,1.6-0.9,2.5-0.8c1,0.3,1.7,1.1,1.8,2.1c0.2,1-0.3,2.1-1.2,2.6c-1,0.3-2.1-0.8-3.1-0.6
		c-0.4,0.1-0.8,0.3-1.1,0.4c-1.5,0.5-3-0.8-4.3-1.9c-0.5-0.4-0.9-0.9-1.2-1.4c-0.3-0.6-0.4-1.3-0.1-2c0.4-0.7,1.3-1.1,2.1-0.9
		c1.6,0.3,3.1,1.1,4.2,2.2l-0.1-0.9L286.2,314.2z"/>
	<path class="st4" d="M264.1,312.5c0.4-0.4,0.8-0.7,1.3-0.9c0.5-0.2,1.1,0,1.4,0.5c0.4,0.8,0.2,1.7-0.4,2.3
		c-0.5,0.5-1.2,0.8-1.9,0.8c-0.7,0.1-1.6,0.2-1.9-0.6c-0.2-0.6-0.1-1.3,0.3-1.8c0.4-0.4,0.9-0.7,1.4-0.9L264.1,312.5z"/>
	<path class="st4" d="M299,298c1.5,0.9,2.6,2.5,2.8,4.3c0.1,0.6,0.1,1.3-0.3,1.6c-0.3,0.1-0.7,0.1-1,0l-4-1.2
		c0.7,0.3,1.3,0.7,1.8,1.2c0.6,0.6,0.8,1.5,0.7,2.3c-0.2,0.9-1,1.6-1.9,1.6c-0.9-0.1-1.6-0.5-2.2-1.1c-0.8-0.6-1.3-1.6-1.4-2.6
		c0-1.1,1.1-2.1,1.7-1.4c-1.6-0.6-3.1-1.4-4.3-2.5c-0.5-0.4-0.9-0.9-1.2-1.5c-0.3-0.6-0.4-1.4-0.1-2.1c1.4-3.2,3.1,1.5,4,1.9
		C295.1,299.3,296.9,296.9,299,298z"/>
	<path class="st4" d="M305.3,311.5c0.2,0.6,0,1.3-0.4,1.8c-0.3,0.3-0.8,0.3-1.1,0c-0.1-0.1-0.2-0.2-0.2-0.3c1,0.3,1.8,0.9,2.4,1.7
		c0.6,1,0.4,2.6-0.5,3c-0.6,0.1-1.2,0-1.7-0.5c-1.5-1-2.9-2.2-4.2-3.5c0.3,1.1-0.3,2.3-1.4,2.6h-0.1c-1.1-0.1-2.1-0.5-2.8-1.2
		c-1-0.8-2.3-2-2-3.6c0.2-1.1,1.2-1.8,2.3-1.6c0.1,0,0.3,0.1,0.4,0.1c1.1,0.6,1.9,1.4,2.5,2.5c-0.5-1,0-2.3,1.1-2.7
		c0.1,0,0.1,0,0.2-0.1c1.1,0,2,0.5,2.5,1.5c-1.1-0.8-1.4-2.8,0.1-3C303.4,308,305,310.5,305.3,311.5z"/>
	<path class="st4" d="M274.4,307c0.9-0.3,1.8,0.2,2.1,1.1c0,0.1,0.1,0.2,0.1,0.3c0.3,1.1-0.3,2.2-1.3,2.5c0.7,0.1,1.3,0.5,1.7,1.1
		c0.3,0.4,0.4,0.8,0.4,1.3c-0.1,0.6-0.6,1.1-1.2,1.2c-0.6,0-1.1-0.2-1.6-0.6c0.6,0,1.1,0.2,1.5,0.6c0.5,0.5,0.6,1.2,0.2,1.8
		c-0.3,0.3-0.9,0.4-1.3,0.2c-1-0.4-1.9-1-2.6-1.9c-0.5,0.8-1.3,1.3-2.2,1.2c-1-0.3-1.5-1.3-1.3-2.3c0.2-0.7,0.7-1.2,1.4-1.3
		c0.6,0,1.2,0.1,1.8,0.4c-0.7-0.5-1.2-1.2-1.4-2c-0.2-0.9,0.2-2,1-1.9c0.7,0.1,1.2,1.5,1.8,2C274.1,309.7,272.7,307.8,274.4,307z"/>
	<path class="st4" d="M288.8,302.8c0.9,1,1.3,2.4,1.2,3.7c-0.1,1.5-0.6,3.2-1.7,3.8c-1.5,0.8-3.3-0.7-3.6-2.7
		c-0.2-1.9,0.6-3.8,2.2-4.9C287.5,302.2,288.3,302.3,288.8,302.8z"/>
	<path class="st4" d="M278.6,301.1l-0.4,0.4c0.4-0.8,1.4-1.1,2.2-0.6c0.2,0.1,0.3,0.2,0.4,0.4c0.7,1,0.7,2.4,0,3.4
		c-0.6,0.7-1.6,0.8-2.3,0.2c-0.1-0.1-0.3-0.3-0.4-0.4c-1.1,0.7-2.5,0.3-3.2-0.8c-0.8-1.2-0.6-2.8,0.4-3.8c1-0.7,2.5,0.4,2.5,1.8
		l0.4-0.6H278.6z"/>
	<path class="st4" d="M267.3,303.4c0.8,0.9,1.4,1.9,1.7,3.1s-0.2,2.8-1.2,3.1s-1.9-0.7-2.5-1.8c-0.6-1-0.8-2.1-0.6-3.2
		c0.3-1.1,1.5-1.7,2.1-0.9L267.3,303.4z"/>
	<path class="st4" d="M283.6,295.9c0.2-0.8,1.1-1.2,1.8-1c0.2,0,0.3,0.1,0.5,0.2c0.8,0.8,1,1.9,0.7,3c-0.3,1-1.1,1.7-2.1,1.9
		c-1.1,0.1-2.1-0.8-2.2-1.9c0-0.1,0-0.3,0-0.4c-0.4,0.7-1.3,1.1-2.1,1c-0.8-0.1-1.6-0.5-2.2-1c-1.1-0.6-1.8-1.8-1.8-3.1
		c0.1-1,0.8-1.8,1.8-2c0.9,0,1.8,0.4,2.3,1.1c0.5,0.6,1,1.2,1.5,1.7s1.3,0.7,1.9,0.3L283.6,295.9z"/>
	<path class="st8" d="M280.5,327.4c2.1,6.2,1,13.1-2.8,18.5c4.1,0,7.7,0.3,11.8,0.3c-1.8-6.3-2.3-12.9-1.2-19.4
		C286,326.7,282.8,327.4,280.5,327.4z"/>
	<polygon class="st3" points="266,382.2 301.3,382.2 304.8,346.6 262.6,346.6 	"/>
	<polygon class="st7" points="259.8,348.4 307.9,348.4 308.7,343.7 258.9,343.7 	"/>
	<rect x="68.2" y="181.6" class="st3" width="109.9" height="200.7"/>
	<rect x="84.3" y="157.1" class="st5" width="77.7" height="13.3"/>
	<rect x="73.8" y="186.5" class="st4" width="98.6" height="195.8"/>
	<rect x="73.8" y="275" class="st5" width="98.6" height="24.9"/>
	<rect x="73.8" y="357.6" class="st5" width="98.6" height="24.9"/>
	<path class="st9" d="M165.8,296.8v-19.6c0-1-0.8-1.9-1.9-1.9l0,0l0,0c-1,0-1.9,0.8-1.9,1.9l0,0v19.6c0,1,0.8,1.9,1.9,1.9l0,0
		C165,298.7,165.8,297.8,165.8,296.8z"/>
	<rect x="81.5" y="189.6" class="st8" width="17.2" height="82.4"/>
	<rect x="83.2" y="191.4" class="st3" width="13.8" height="78.8"/>
	<polygon class="st7" points="97.1,202.5 83.2,207.9 83.2,221.3 97.1,215.9 	"/>
	<polygon class="st7" points="97.1,218.6 83.2,224 83.2,229.1 97.1,223.7 	"/>
	<polygon class="st7" points="97.1,246.3 83.2,251.8 83.2,256.9 97.1,251.4 	"/>
</g>
<g id="freepik--Shadow--inject-12">
	<ellipse id="freepik--path--inject-12" class="st7" cx="265" cy="439.4" rx="229" ry="13.4"/>
</g>
<g id="doc5">
	<polygon class="st0" points="415.3,293.9 409.4,337.1 424.7,336.9 	"/>
	<polygon class="st10" points="415.3,293.9 409.4,337.1 424.7,336.9 	"/>
	<polygon class="st11" points="402.5,414 404.2,429 411.7,428.4 411.3,412.7 	"/>
	<polygon class="st12" points="411.6,422.6 411.5,418.9 403.1,419.2 403.5,423.2 	"/>
	<path class="st0" d="M400.9,429c-0.8,0.1-1.7,0-2.4-0.4c-0.2-0.2-0.2-0.6,0-0.8c0.1-0.2,0.3-0.4,0.6-0.5c1.3-0.5,4.2,0.9,4.3,1
		c0.1,0,0.1,0.1,0.1,0.2s-0.1,0.1-0.1,0.2C402.5,428.9,401.7,429,400.9,429z M399.5,427.6c-0.1,0-0.2,0-0.4,0.1
		c-0.2,0-0.3,0.1-0.4,0.3c-0.1,0.2-0.1,0.4,0,0.4c0.4,0.5,2.4,0.4,3.9,0.1C401.7,428,400.6,427.7,399.5,427.6L399.5,427.6z"/>
	<path class="st0" d="M403.2,428.6C403.2,428.7,403.2,428.7,403.2,428.6c-1.1-0.4-3.1-1.9-3-2.8c0-0.2,0.1-0.5,0.7-0.6
		c0.4-0.1,0.8,0,1.1,0.2c1.1,0.8,1.4,2.9,1.5,3c0,0.1,0,0.1-0.1,0.2C403.3,428.7,403.3,428.7,403.2,428.6z M401.1,425.6L401.1,425.6
		c-0.4,0-0.4,0.2-0.4,0.2c0,0.5,1.3,1.8,2.4,2.3c-0.2-0.9-0.6-1.7-1.2-2.4C401.6,425.6,401.3,425.6,401.1,425.6L401.1,425.6z"/>
	<path class="st13" d="M404,427.5l8.6-0.6c0.3,0,0.6,0.2,0.7,0.5l2.1,6.9c0.2,0.6-0.2,1.3-0.8,1.4l0,0h-0.2
		c-3.1,0.2-5.9,0.2-9.8,0.5c-4.6,0.3-3.4-0.1-8.8,0.3c-3.2,0.3-4.1-2.4-2.7-2.7c6.2-1.2,6.8-3.2,9-5.6
		C402.7,427.8,403.3,427.5,404,427.5z"/>
	<polygon class="st11" points="447.5,411.1 453,425.1 460.1,422.6 455.7,407.5 	"/>
	<polygon class="st12" points="451,420 458.6,417.5 457,411.8 448.7,414.2 	"/>
	<path class="st0" d="M450.1,426.5c-0.8,0.3-1.6,0.3-2.3,0c-0.2-0.2-0.3-0.5-0.2-0.8c0.1-0.2,0.2-0.4,0.4-0.6
		c1.1-0.7,4.1,0.1,4.3,0.1c0.1,0,0.1,0.1,0.1,0.2s0,0.1-0.1,0.2C451.6,425.9,450.9,426.2,450.1,426.5z M448.5,425.3
		c-0.1,0-0.2,0.1-0.3,0.1c-0.1,0.1-0.2,0.2-0.3,0.3c-0.1,0.3,0,0.4,0.1,0.4c0.5,0.4,2.4-0.1,3.7-0.7
		C450.6,425.3,449.6,425.2,448.5,425.3L448.5,425.3z"/>
	<path class="st0" d="M452.3,425.6C452.2,425.6,452.2,425.6,452.3,425.6c-1.1-0.1-3.3-1.3-3.4-2.1c0-0.2,0-0.5,0.5-0.7
		c0.3-0.1,0.7-0.1,1.1,0c1.2,0.5,1.9,2.5,2,2.5c0,0.1,0,0.1,0,0.2C452.4,425.6,452.3,425.6,452.3,425.6z M449.6,423.1h-0.1
		c-0.3,0.1-0.3,0.2-0.3,0.3c0.1,0.5,1.6,1.5,2.7,1.7c-0.3-0.8-0.9-1.5-1.6-2C450.1,423.1,449.9,423,449.6,423.1L449.6,423.1z"/>
	<path class="st13" d="M452.8,424.4l8.1-2.2c0.3-0.1,0.6,0.1,0.8,0.3l3.3,6.2c0.3,0.5,0.1,1.2-0.5,1.5l-0.2,0.1
		c-2.9,0.8-5.6,1.3-9.2,2.3c-4.3,1.2-3,1.4-8,2.9c-3,0.9-4.5-2.4-3.3-2.9c5.7-2.4,5.8-4.3,7.5-7.1
		C451.6,424.9,452.1,424.5,452.8,424.4z"/>
	<path class="st13" d="M396.9,270c0,0-5.1,62.9-4.2,83.8c0.7,16,8.3,63.6,8.3,63.6l12-0.9c0,0-1.2-76.4,3.6-104.7
		c1.9-11.3,8.4-41.8,8.4-41.8H396.9z"/>
	<path class="st14" d="M419.5,291.1l-2.1-8.1l-5.4,3l2,54.9C414.6,326.1,417.3,300.1,419.5,291.1z"/>
	<path class="st13" d="M409,269.8c0,0,10.4,76.4,17,92.2c5.5,13.2,20.7,52.7,20.7,52.7l11-3.6c0,0-17.4-83-19.4-100.1
		c-1.1-9.4-0.4-33.3-3.8-40.8L409,269.8z"/>
	<polygon class="st0" points="399.4,414.6 400.3,420.7 414.5,419.5 414.6,413.7 	"/>
	<polygon class="st0" points="444.6,412.8 447.1,418.4 460.2,413.5 459,407.9 	"/>
	<path class="st0" d="M394.2,208.2l1.4,65l40.8,0.7l3.3-59.8c0.2-3.7-2.4-7-6-7.7l-25.3-4.8l-7.5,0.4
		C394.7,202.2,394.1,203.6,394.2,208.2z"/>
	<path class="st0" d="M384.6,339.4l5.7,0.7c4.3,0.6,8.3-2.5,8.8-6.8c0-0.2,0-0.4,0.1-0.6l3.3-59.5l0.5-8.9l5.4-62.9c0,0-3,0-9.5,0.5
		c-4.8,0.1-9.1,3.3-10.5,8.9c-3.6,14.1-4.6,17.6-6.8,30.5c2.9-1.2,7.3-2.8,10.2-4c0.8-3.7,1.8-8.3,2.8-12.9l0.7,34.2L384.6,339.4z"
		/>
	<path class="st15" d="M384.6,339.4l5.7,0.7c4.3,0.6,8.3-2.5,8.8-6.8c0-0.2,0-0.4,0.1-0.6l3.3-59.5l0.5-8.9l5.4-62.9
		c0,0-3,0-9.5,0.5c-4.8,0.1-9.1,3.3-10.5,8.9c-3.6,14.1-4.6,17.6-6.8,30.5c2.9-1.2,7.3-2.8,10.2-4c0.8-3.7,1.8-8.3,2.8-12.9
		l0.7,34.2L384.6,339.4z"/>
	<path class="st0" d="M454.4,335.5l-17.2-77l2.5-44.4c0.2-3.7-2.4-7-6-7.7l-8.5-1.5l0,0c0,0,1.5,44.8,2.5,59.7
		c0.2,2.5,0.4,5.6,0.8,9.2c0.1,0.7,0.1,1.5,0.2,2.2l0,0c0.5,5.7,1.2,12.2,1.9,18.9c0,0.1,0,0.2,0,0.4c0.3,2.6,0.5,5.2,0.8,7.8l0,0
		c0.3,3.1,0.6,6.1,1,9.1c0,0.1,0,0.1,0,0.2c0.7,6.9,1.4,13.1,1.9,17.8c0.5,4.4,4.5,7.5,8.8,7c0.1,0,0.2,0,0.4,0L454.4,335.5z"/>
	<path class="st15" d="M454.4,335.5l-17.2-77l2.5-44.4c0.2-3.7-2.4-7-6-7.7l-8.5-1.5l0,0c0,0,1.5,44.8,2.5,59.7
		c0.2,2.5,0.4,5.6,0.8,9.2c0.1,0.7,0.1,1.5,0.2,2.2l0,0c0.5,5.7,1.2,12.2,1.9,18.9c0,0.1,0,0.2,0,0.4c0.3,2.6,0.5,5.2,0.8,7.8l0,0
		c0.3,3.1,0.6,6.1,1,9.1c0,0.1,0,0.1,0,0.2c0.7,6.9,1.4,13.2,2,17.9c0.5,4.3,4.4,7.4,8.7,7c0.1,0,0.2,0,0.3,0L454.4,335.5z"/>
	<path class="st14" d="M426.8,247.5l5.7,0.6l1.1-31.4L439,227l-2.4,24c-0.4,3.5-3.5,6.1-7,5.7c-0.6-0.1-1.2-0.2-1.8-0.4l-0.6-0.2
		C427.2,253,427,251.2,426.8,247.5z"/>
	<path class="st11" d="M409.5,204.4l0.6,0.5c1.5,1.2,3.3,2,5.2,2.1l0,0c1.1,0.1,2.2,0,3.2-0.2l5.6-1.4v-0.1
		c-2.5-5-0.6-14.4,0.9-19.8l-12.3,8.9C413.4,198.2,413,202.3,409.5,204.4z"/>
	<path class="st12" d="M417.7,192.9c0,0-2.4,0.7-4.8,1.6c0.3,1.7,0.3,3.5-0.1,5.3c6.2,0.3,9.3-3.7,10.7-6.5c0.1-0.8,0.2-1.6,0.4-2.4
		L417.7,192.9z"/>
	<g class="st16">
		<polygon points="409.1,207.3 413.9,213.9 420.8,209 419,206.6 411.1,205.9 		"/>
	</g>
	<path class="st13" d="M398.2,231.4c0.2,0,0.4-0.1,0.4-0.2c0-0.1,0-0.2-0.1-0.3l-1.1-1.1c-2.1-2-2.7-5.2-1.5-7.8l5.4-12.3
		c1-2.2,3.6-3.3,5.9-2.3c1.5,0.7,2.5,2.1,2.6,3.8l0.8,13.4c0.2,2.9-1.4,5.6-4.1,6.8l-1.4,0.6c-0.2,0.1-0.3,0.2-0.2,0.4
		c0.1,0.2,0.2,0.3,0.4,0.2h0.1l1.4-0.6c2.9-1.3,4.7-4.3,4.4-7.5l-0.9-13.3c-0.2-2.8-2.6-5-5.4-4.8c-1.9,0.1-3.6,1.3-4.4,3l-5.4,12.3
		c-1.3,2.9-0.6,6.3,1.6,8.6l1.1,1.1C398.1,231.3,398.2,231.4,398.2,231.4z"/>
	<path class="st13" d="M399.9,212.2c0.2,0.1,0.3,0,0.4-0.2c1.5-2.5,4.7-3.3,7.2-1.8c1.3,0.8,2.2,2.1,2.5,3.5c0,0.2,0.2,0.3,0.3,0.3
		c0.2,0,0.3-0.2,0.3-0.3l0,0l0,0c-0.5-3.2-3.6-5.4-6.8-4.9c-1.8,0.3-3.3,1.4-4.2,2.9C399.6,212,399.7,212.2,399.9,212.2L399.9,212.2
		z"/>
	<path class="st13" d="M406.2,207.1L406.2,207.1c0.2,0,0.3-0.1,0.4-0.2l0,0l0,0c0.4-1.6,1.5-4.3,3.2-4.6c0.2,0,0.3-0.2,0.3-0.4
		s-0.2-0.3-0.4-0.3l0,0c-2.4,0.4-3.5,4.6-3.6,5.1C405.9,206.8,406,207,406.2,207.1z"/>
	<path class="st13" d="M404.6,232.2c-0.1,0.6,0.1,1.2,0.5,1.2s0.8-0.4,0.9-1s-0.1-1.2-0.5-1.2S404.7,231.6,404.6,232.2z"/>
	<path class="st13" d="M397.6,230.9c-0.1,0.6,0.1,1.2,0.5,1.2s0.8-0.4,0.9-1s-0.1-1.2-0.5-1.2S397.7,230.3,397.6,230.9z"/>
	<path class="st13" d="M423.9,223.8c-0.1,1.4,0.5,2.6,1.4,2.7s1.8-1,1.9-2.4s-0.5-2.6-1.4-2.7S424,222.4,423.9,223.8z"/>
	<path class="st13" d="M426.7,224.2L426.7,224.2c0.2,0,0.4-0.1,0.5-0.2c1.5-5.3,1.3-15-1.1-19c-0.1-0.2-0.2-0.2-0.4-0.2l0,0
		c-0.2,0.1-0.2,0.3-0.2,0.4c0,0,0,0.1,0.1,0.1c2.3,3.9,2.5,13.3,1,18.5C426.5,224,426.5,224.2,426.7,224.2z"/>
	<path class="st9" d="M422.9,223.6c-0.2,1.2,0.4,2.2,1.2,2.4s1.7-0.7,1.9-1.9c0.3-1-0.3-2-1.2-2.4
		C423.9,221.6,423.1,222.4,422.9,223.6z"/>
	<path class="st13" d="M422.8,223.7c-0.2,1.5,0.2,2.7,0.9,2.8s1.4-1.1,1.5-2.5s-0.2-2.7-0.9-2.8S423,222.2,422.8,223.7z"/>
	<polygon class="st0" points="408.6,201.4 410.9,200.4 415.5,205.2 424.1,202.4 426.2,204.7 419,212.1 415.2,206.9 410,210.7 	"/>
	<g class="st17">
		<polygon class="st9" points="408.6,201.4 410.9,200.4 415.5,205.2 424.1,202.4 426.2,204.7 419,212.1 415.2,206.9 410,210.7 		"/>
	</g>
	<path class="st13" d="M407.9,171.1c0,0-0.3-9.2,7.5-5.4L407.9,171.1z"/>
	<path class="st15" d="M407.9,171.1c0,0-0.3-9.2,7.5-5.4L407.9,171.1z"/>
	<path class="st11" d="M428.1,178.1c-1.5,7.6-2,12.1-6.5,15.6c-6.6,5.1-15.6,0.3-16.4-7.6c-0.7-7.2,1.9-18.4,9.9-20.4
		c5.7-1.5,11.4,1.9,12.9,7.6C428.4,174.8,428.4,176.5,428.1,178.1L428.1,178.1z"/>
	<path class="st13" d="M406.6,171.7c0-0.6,0.5-1.8,1.8-1.2c0,0,1.3-1.3,2.2,0.1c0,0,1.6,0.1,1.5,1.2c-0.2,1.4-1.3,0.1-3,0.4
		S406.5,172.7,406.6,171.7z"/>
	<path class="st10" d="M406.6,171.7c0-0.6,0.5-1.8,1.8-1.2c0,0,1.3-1.3,2.2,0.1c0,0,1.6,0.1,1.5,1.2c-0.2,1.4-1.3,0.1-3,0.4
		S406.5,172.7,406.6,171.7z"/>
	<path class="st13" d="M419.1,173.3c0.1-0.6-0.1-1.8-1.5-1.5c0,0-1-1.6-2.1-0.3c0,0-1.6-0.2-1.7,0.9c-0.1,1.4,1.2,0.4,2.8,1
		S419,174.3,419.1,173.3z"/>
	<path class="st10" d="M419.1,173.3c0.1-0.6-0.1-1.8-1.5-1.5c0,0-1-1.6-2.1-0.3c0,0-1.6-0.2-1.7,0.9c-0.1,1.4,1.2,0.4,2.8,1
		S419,174.3,419.1,173.3z"/>
	<path class="st13" d="M405,185.2c0,0,5.5-1.7,13.2,0.8c0,0,2.5,0.4,4-2.6l1.1-2.1l1.7,0.8l0.8,6.4c0,0-2,6.3-3.9,6.5
		c0,0-2.4,3-5.8,2c0,0-2,2.3-5.6-1c0,0-2-0.1-3.4-3.8C407.1,192,405.2,191.3,405,185.2z"/>
	<path class="st15" d="M405,185.2c0,0,5.5-1.7,13.2,0.8c0,0,2.5,0.4,4-2.6l1.1-2.1l1.7,0.8l0.8,6.4c0,0-2,6.3-3.9,6.5
		c0,0-2.4,3-5.8,2c0,0-2,2.3-5.6-1c0,0-2-0.1-3.4-3.8C407.1,192,405.2,191.3,405,185.2z"/>
	<path class="st13" d="M412.1,187.2c-0.1,0.6-0.5,1.1-0.9,1s-0.7-0.6-0.6-1.2s0.5-1.1,0.9-1S412.2,186.6,412.1,187.2z"/>
	<path class="st18" d="M411.7,177.6c-1.2,1.6-2.8,3-4.5,4c0.5,0.9,1.4,1.5,2.4,1.6L411.7,177.6z"/>
	<path class="st0" d="M411.2,176.4c0.1,1.8-1.2,3.3-3,3.5s-3.3-1.2-3.5-3c-0.1-1.8,1.2-3.3,3-3.5
		C409.5,173.3,411.1,174.6,411.2,176.4L411.2,176.4z"/>
	<path class="st0" d="M419.5,177.8c0.1,1.8-1.2,3.3-3,3.4c-1.8,0.1-3.3-1.2-3.4-3s1.2-3.3,3-3.4C417.8,174.7,419.3,176,419.5,177.8
		L419.5,177.8z"/>
	<path class="st10" d="M411.2,176.4c0.1,1.8-1.2,3.3-3,3.5s-3.3-1.2-3.5-3c-0.1-1.8,1.2-3.3,3-3.5
		C409.5,173.3,411.1,174.6,411.2,176.4L411.2,176.4z"/>
	<path class="st10" d="M419.5,177.8c0.1,1.8-1.2,3.3-3,3.4c-1.8,0.1-3.3-1.2-3.4-3s1.2-3.3,3-3.4C417.8,174.7,419.3,176,419.5,177.8
		L419.5,177.8z"/>
	<path class="st19" d="M406.1,179.3c0.6,0.5,1.4,0.7,2.1,0.6c1.8-0.1,3.1-1.7,3-3.5l0,0c-0.1-0.8-0.4-1.5-0.9-2L406.1,179.3z"/>
	<path class="st19" d="M414.2,180.5c0.6,0.5,1.5,0.8,2.3,0.8c1.8-0.1,3.1-1.7,3-3.5c-0.1-0.8-0.5-1.6-1.1-2.2L414.2,180.5z"/>
	<path class="st13" d="M408.2,180.2c-1.9,0.1-3.6-1.3-3.8-3.2c-0.1-1.9,1.3-3.6,3.2-3.8c1.9-0.1,3.6,1.3,3.8,3.2l0,0
		C411.6,178.4,410.2,180,408.2,180.2L408.2,180.2z M407.8,173.7c-1.7,0.1-2.9,1.5-2.8,3.2s1.5,2.9,3.2,2.8s2.9-1.5,2.8-3.2
		c0,0,0,0,0-0.1C410.8,174.8,409.4,173.6,407.8,173.7z"/>
	<path class="st13" d="M416.5,181.6c-1.9,0.2-3.6-1.3-3.8-3.2c-0.2-1.9,1.3-3.6,3.2-3.8c1.9-0.2,3.6,1.3,3.8,3.2l0,0
		C419.9,179.7,418.4,181.4,416.5,181.6z M416,175.1c-1.7,0.1-2.9,1.5-2.8,3.2s1.5,2.9,3.2,2.8s2.9-1.5,2.8-3.2c0,0,0,0,0-0.1
		C419.1,176.2,417.6,175,416,175.1L416,175.1z"/>
	<path class="st13" d="M412.7,177.5c-0.3-0.4-0.8-0.6-1.3-0.3c0,0-0.1,0-0.1,0.1l-0.3-0.4c0.7-0.5,1.6-0.4,2.1,0.3c0,0,0,0,0,0.1
		L412.7,177.5z"/>
	<polygon class="st13" points="425.9,182.3 419.2,179.3 419.4,178.8 426.1,181.8 	"/>
	<path class="st13" d="M423.3,182.3c-0.7-1.8-1-3.6-1.1-5.5c0-1.9,1-3.7,2.6-4.8c0.2-1.2,1.4-2.1,2.7-1.8c0.1,0,0.2,0.1,0.3,0.1
		c1.2,0.6,2.2,1.6,2.8,2.8c1.4,0.1,2.6,1.2,2.9,2.6c0.3,1.5,0.1,3-0.8,4.2c-0.8,1.2-1.9,2.3-3.1,3.1c-1.1,0.8-2.2,2-3.5,1.7
		C424.8,184.5,423.7,183.6,423.3,182.3z"/>
	<path class="st15" d="M423.3,182.3c-0.7-1.8-1-3.6-1.1-5.5c0-1.9,1-3.7,2.6-4.8c0.2-1.2,1.4-2.1,2.7-1.8c0.1,0,0.2,0.1,0.3,0.1
		c1.2,0.6,2.2,1.6,2.8,2.8c1.4,0.1,2.6,1.2,2.9,2.6c0.3,1.5,0.1,3-0.8,4.2c-0.8,1.2-1.9,2.3-3.1,3.1c-1.1,0.8-2.2,2-3.5,1.7
		C424.8,184.5,423.7,183.6,423.3,182.3z"/>
	<path class="st11" d="M430.8,185.8c-1.3,1.5-3.1,2.4-5,2.6c-2.6,0.2-3.4-2.2-2.2-4.4c1-1.9,3.6-4.4,6-3.6S432.4,183.9,430.8,185.8z
		"/>
	<path class="st11" d="M407.5,243.3l-5.5-2.6c-0.5-0.2-1-0.3-1.6-0.3l-5.5,0.2c-1.2,0-2.3-0.5-3-1.5l-2.2-3.2
		c-1.1-1.6-0.7-3.8,0.9-4.8l0.1-0.1l1-0.6c1.4-0.8,3.1-0.6,4.3,0.5l0,0c0.6,0.6,1.3,0.9,2.1,1h0.3c1.5,0.1,2.7,1.2,3,2.7l0.2,0.8
		l8,2.5L407.5,243.3z"/>
	<polygon class="st13" points="410.9,236.6 405,234.6 402.5,242.3 408.1,244.5 	"/>
	<g class="st20">
		<polygon class="st9" points="410.9,236.6 405,234.6 402.5,242.3 408.1,244.5 		"/>
	</g>
	<path class="st0" d="M433.7,209.7c0.2-1,0.6-2,1.1-3c3.1,0.3,11,4.9,10.8,12.8c-0.2,8.2-6.1,23.6-9,30.6c-1.4,3.4-5.2,5-8.6,3.7
		l-21.9-8.6l3.2-10.6l14.6,4.8c1.3,0.4,2.7-0.3,3.1-1.6c0-0.1,0-0.1,0.1-0.2L433.7,209.7z"/>
	<path class="st15" d="M433.7,209.7c0.2-1,0.6-2,1.1-3c3.1,0.3,11,4.9,10.8,12.8c-0.2,8.2-6.1,23.6-9,30.6c-1.4,3.4-5.2,5-8.6,3.7
		l-21.9-8.6l3.2-10.6l14.6,4.8c1.3,0.4,2.7-0.3,3.1-1.6c0-0.1,0-0.1,0.1-0.2L433.7,209.7z"/>
	<path class="st11" d="M411.1,236.3l6.1,0.3c0.6,0,1.1-0.1,1.6-0.3l5-2.3c1.1-0.5,2.4-0.4,3.4,0.3l3.2,2.2c1.6,1.1,2,3.3,0.9,4.9
		c0,0,0,0.1-0.1,0.1l-0.7,1c-0.9,1.3-2.6,1.8-4.1,1.2l0,0c-0.7-0.3-1.5-0.3-2.3-0.1l-0.3,0.1c-1.4,0.4-3-0.1-3.8-1.3l-0.5-0.7
		l-8.4,0.7L411.1,236.3z"/>
	<polygon class="st13" points="410.2,236 416.4,235.8 416.6,243.8 410.5,244.3 	"/>
	<g class="st20">
		<polygon class="st9" points="410.2,236 416.4,235.8 416.6,243.8 410.5,244.3 		"/>
	</g>
	<path class="st0" d="M381.6,241.4c0.3,3.6,3.5,6.3,7.1,6l23.5-1.8v-11.1l-15.4,0.3C381.9,233.9,381.6,241.4,381.6,241.4z"/>
	<g class="st20">
		<path class="st9" d="M381.6,241.4c0.3,3.6,3.5,6.3,7.1,6l23.5-1.8v-11.1l-15.4,0.3C381.9,233.9,381.6,241.4,381.6,241.4z"/>
	</g>
	<path class="st0" d="M442.3,302.2l-6.3-0.9c-1.8-0.3-3-1.9-2.8-3.7l0.2-1.2l0,0l12.8,1.8l0,0l-0.2,1.2
		C445.8,301.2,444.1,302.4,442.3,302.2L442.3,302.2z"/>
	<path class="st10" d="M442.3,302.2l-6.3-0.9c-1.8-0.3-3-1.9-2.8-3.7l0.2-1.2l0,0l12.8,1.8l0,0l-0.2,1.2
		C445.8,301.2,444.1,302.4,442.3,302.2L442.3,302.2z"/>
</g>
<g id="doc4">
	<path class="st21" d="M379.6,291l-2.4-0.4c-0.9-0.2-1.6-0.8-2-1.6l-1.8-3.9c-0.7-1.5-0.6-3.3,0.2-4.8l0.5-0.9
		c4,0.5,9.2,4.8,9.2,4.8c1.1,0.7,1.4,2.2,0.7,3.2l-1.7,2.5C381.7,290.8,380.6,291.2,379.6,291z"/>
	<path class="st0" d="M358.8,260.2c0.1-6.3,0.3-13,0.3-18.6c0-7.1-3.2-12.3-10.4-11.6c-0.6,0-1.2,0.2-1.8,0.5c0,0-0.1,30.3,1.8,34.3
		c6.8,8,14.9,14.6,24.1,19.6c0.8-2.5,2.2-3,4.3-4.4C370.9,274,364.8,266.5,358.8,260.2z"/>
	<path class="st10" d="M358.8,260.2c0.1-6.3,0.2-12.2,0.3-17.1c0.2-8.9-3.2-13.8-10.4-13.1c-0.6,0-1.2,0.2-1.8,0.5
		c0,0-0.1,30.3,1.8,34.3c6.8,8,14.9,14.6,24.1,19.6c0.8-2.5,2.2-3,4.3-4.4C370.9,274,364.8,266.5,358.8,260.2z"/>
	<g id="freepik--freepik--Character--inject-5--inject-12">
		<path d="M331.7,309.5c1.4,5.5,3.1,11.7,5.3,18.4c0.6-13.5,4.3-31.5,4.4-32.1L331.7,309.5z"/>
		<path class="st21" d="M343.7,288.9l-16.2,69L310,412.6l-7-1.3c0.6-13.9,2.4-27.7,5.4-41.3c1.1-4.6,3.8-9.6,4.3-13.4
			c0.5-3.3-0.2-5.6,0.2-13.3c0.5-9.3,1.7-21.5,4.9-30.3c0,0-6.4-12.4-0.1-24.9L343.7,288.9z"/>
		<polygon class="st21" points="307.3,423.4 302.3,421.7 302.8,412.9 303.6,405 311.6,405.9 309.3,415.1 		"/>
		<path class="st22" d="M312.1,435.5c-0.6-0.9-1.4-1.6-2.3-2.2l0,0c0,0-2.2-3.7-1.4-12.9l-3.6-2c-1.3-0.7-2.8-0.5-3.9,0.5
			c-0.1,0.1-0.3,0.3-0.4,0.5c-0.4,0.9-0.8,1.8-1.1,2.7c-1,3.2-1.9,6.4-2.5,9.7l0.7,0.2l1.8-6c0.6-2,1.6,0.8,1.5,3.1s0.2,5,4.7,6.2
			C310.8,436.7,313.1,437.1,312.1,435.5z"/>
		<path class="st21" d="M308.5,417.1c0,0-0.2,4.2,0,9c0,2.4,0.4,4.9,1.3,7.1c0,0-3.5-0.3-4.4-2.9s-0.9-11-4.4-11.4
			c0.4-0.5,0.9-1,1.4-1.4C303.1,416.9,308.5,417.1,308.5,417.1z"/>
		<path class="st21" d="M355.6,285.2l4.1,70.8l-1.2,57.5l-7.1,0.7c-3.4-13.5-5.6-27.3-6.6-41.1c-0.3-4.8,0.9-10.3,0.3-14
			c-0.5-3.3-1.8-5.4-3.6-12.8c-2.2-9-4.5-21.1-4-30.5c0,0-9.6-10.1-7.2-23.8L355.6,285.2z"/>
		<polygon class="st21" points="359,424.6 353.7,424.4 351.7,415.8 350.3,408 358.1,406.5 358.6,416.1 		"/>
		<path class="st22" d="M367,434.8c-0.9-0.6-1.8-1.1-2.9-1.4l0,0c0,0-3.2-2.9-5-11.9l-4-0.9c-1.4-0.3-2.8,0.3-3.6,1.6
			c-0.1,0.2-0.2,0.3-0.2,0.5c-0.2,1-0.3,1.9-0.3,2.9c-0.1,3.3,0,6.7,0.3,10h0.7v-6.3c0-2.1,1.8,0.3,2.3,2.6s1.6,4.7,6.3,4.6
			C366.2,436.3,368.5,436,367,434.8z"/>
		<path class="st21" d="M358.4,418.2c0,0,1,4.1,2.5,8.7c0.7,2.4,1.8,4.6,3.3,6.5c0,0-3.5,0.8-5.1-1.5s-4-10.2-7.5-9.7
			c0.3-0.6,0.6-1.2,1-1.7C353.1,419.6,358.4,418.2,358.4,418.2z"/>
		<path class="st13" d="M358.7,325.1l0.5,17.1c0,0-21.6,0-32.3,0s-15.1,0.1-15.1,0.1s-3-27.4,4-41.7s1.8-23,1.8-23s36.7-2,36.7,0
			L358.7,325.1z"/>
		<path class="st0" d="M356.7,239.6c0.5,4.5,0.5,9,0.1,13.6c-0.2,6.1-1.6,12.4-3.2,22.2c-3.3,1.9-20.1,1.1-30.9-0.2
			c0.6-8.6-0.4-18.4-6.2-37.8c-1.2-3.8,0.9-7.8,4.7-8.9c0.6-0.2,1.2-0.3,1.7-0.3c1.3-0.1,2.6-0.2,4-0.3c4.9-0.3,9.8-0.3,14.7,0
			c1.6,0.1,3.3,0.3,4.9,0.5C352.3,229.1,355.7,233.5,356.7,239.6z"/>
		<path class="st0" d="M354.2,277.5c-10.8,1.2-21.8,1.2-32.6-0.1c-0.4-0.1-0.7-0.5-0.6-0.9v-0.1c0.3-0.6,0.5-1.2,0.8-1.9
			c0.1-0.3,0.4-0.5,0.7-0.4c10.4,1.1,20.9,1.1,31.3,0c0.4,0,0.7,0.2,0.8,0.6l0,0c0.1,0.6,0.1,1.3,0.2,2
			C354.8,277,354.5,277.4,354.2,277.5L354.2,277.5z"/>
		<path class="st13" d="M337.7,204.4c0.6,3.8,5.3,16.7,5.4,17.1c-0.9,0-1.9-0.2-2.8-0.3c-0.4-1-1.2-3.2-1.6-4.2
			c-0.1,0.7,0.6,3.1,0.5,3.9c-1-0.1-2.1-0.5-3.1-0.6l-0.9-4.6c-0.3,1.2,0.1,3,0.1,4.2c-0.3,0.1-1.2-0.6-1.2-0.6s-0.3-2.9-0.4-4.5
			c-0.1,1.2-0.3,2.7-0.4,3.9c-3.1-1.7-3.9-4.8-4.1-9.1c-0.3-3.5,0.2-7,1.7-10.3c2.1-4.1,4-7.5,8.4-8.7
			C338.5,195.2,337.9,199.8,337.7,204.4z"/>
		<path class="st21" d="M328,211.2c1.3,4.7,2.9,13.4-0.2,16.6c0,0,4.1,3.3,12.7,6.4c2.6-0.7,2-6.4,2-6.4c-5.4-1.3-5.5-5.2-4.9-8.9
			L328,211.2z"/>
		<path class="st0" d="M327.5,227.1c0,0,5.6,5,7.2,16.9c2.6,19.3,1.3,56.4,0.3,77.6c-0.1,2.5-2.3,4.5-4.8,4.4c-0.5,0-1-0.1-1.4-0.3
			c-6.6-2.5-17.4-0.5-22.3-4.7c-0.3-6.4,10.8-39,9.7-55.9s-3.2-31.6-1-34.8S327.5,227.1,327.5,227.1z"/>
		<path class="st0" d="M342.1,227.6c8,10.3,8.6,43.9,6.5,93.8c-0.2,4.4,4,4,8.1,3.2c6.1-1.2,8.5-0.8,8.5-0.8s-9.7-33.7-8.1-56.6
			s0.5-30.9-3.2-35.1S342.1,227.6,342.1,227.6z"/>
		<path class="st15" d="M342.1,227.6c8,10.3,8.6,43.9,6.5,93.8c-0.2,4.4,3.8,3.9,8.1,3.2c2.8-0.5,5.6-0.8,8.5-0.8
			c0,0-9.7-33.7-8.1-56.6s0.5-30.9-3.2-35.1S342.1,227.6,342.1,227.6z"/>
		<path class="st15" d="M327.5,227.1c0,0,5.6,5,7.2,16.9c2.6,19.3,1.1,56.4,0.1,77.6c-0.1,2.5-2.3,4.5-4.8,4.4c-0.5,0-1-0.1-1.4-0.3
			c-6.6-2.5-17.3-0.5-22.1-4.7c-0.3-6.4,10.8-39,9.7-55.9s-3.2-31.6-1-34.8S327.5,227.1,327.5,227.1z"/>
		<path class="st14" d="M332,214.4l5.7,4.6c-0.2,0.9-0.2,1.7-0.2,2.6c-2-0.3-5-2.5-5.4-4.6C331.9,216.1,331.9,215.2,332,214.4z"/>
		<path class="st13" d="M336.9,193.9c5.6,7.6,8,17.1,6.7,26.4c2.6-5.3,4-11.1,4-16.9c0.2-2.9-0.2-5.8-1.4-8.5
			c-1.3-2.6-4-4.7-6.9-4.6c-1,0-2.1,0.4-2.8,1.1C335.9,192.1,336.3,193.1,336.9,193.9z"/>
		<path class="st21" d="M324,201.7c1.4,7.6,1.9,10.9,6.3,14.6c6.6,5.5,15.6,2.6,16.5-5.2c0.8-7-1.7-18.4-9.6-20.9
			c-5.2-1.9-10.9,0.8-12.8,6C323.7,198,323.6,199.9,324,201.7z"/>
		<path class="st13" d="M337.3,203.5c0.2,0.6,0.7,1.1,1.1,1s0.6-0.7,0.4-1.3s-0.7-1.1-1.1-1S337.1,202.9,337.3,203.5z"/>
		<path class="st13" d="M343.8,201.9c0.2,0.6,0.7,1.1,1.1,1s0.6-0.7,0.4-1.3s-0.7-1.1-1.1-1S343.6,201.3,343.8,201.9z"/>
		<path class="st13" d="M344,200.7l1.4-0.8C345.4,199.9,345,201.3,344,200.7z"/>
		<path class="st23" d="M342,203.4c1,1.3,2.1,2.5,3.4,3.5c-0.5,0.6-1.3,0.9-2.1,0.9L342,203.4z"/>
		<path class="st13" d="M340.4,210.9c0.4,0,0.7-0.1,1.1-0.1c0.1,0,0.2-0.1,0.1-0.2l0,0l0,0c0-0.1-0.1-0.2-0.2-0.1
			c-1.6,0.4-3.3,0-4.6-1.1c-0.1-0.1-0.2-0.1-0.3,0l0,0l0,0c-0.1,0.1-0.1,0.2,0,0.3l0,0C337.6,210.5,339,211,340.4,210.9z"/>
		<path class="st13" d="M327.4,213.4c0.4,3.5,0.9,6.5,0.9,6.7c-0.9-0.2-2.6-0.6-3.5-0.8c-0.4-0.9-0.7-1.7-1-2.6c0,0.7,0,1.4-0.1,2.1
			c-0.9-0.3-2-0.9-2.9-1.2l-0.2-2.5c-0.1,0.7-0.3,1.3-0.5,2c-0.6-0.1-1.1-0.5-1.4-1c0.2-0.6,0.4-1.1,0.5-1.7c-0.5,1-0.8,1.2-0.8,1.2
			c-3.2-2.7-2.8-6.7-1.8-12.2c0.5-2.6,4.7-15.6,13.3-14c-0.2,0.5-0.4,1-0.7,1.6C326.4,197.9,326.4,205.7,327.4,213.4z"/>
		<path class="st21" d="M324.5,209.5c0.8,1.3,2.1,2.2,3.6,2.4c1.8,0.2,2.4-1.9,1.5-3.8c-0.8-1.8-2.6-4-4.3-3.4
			S323.4,207.8,324.5,209.5z"/>
		<path class="st13" d="M334.4,201c0.1,0,0.2-0.1,0.2-0.2c0.3-0.9,1.1-1.6,2-1.8c0.2,0,0.3-0.2,0.3-0.4l0,0c0-0.2-0.3-0.3-0.5-0.3
			c-1.2,0.3-2.1,1.1-2.5,2.2c-0.1,0.2,0,0.4,0.2,0.5C334.2,201.1,334.3,201,334.4,201z"/>
		<path class="st13" d="M345.2,198.2c0.2,0,0.3-0.2,0.3-0.4l0,0c0-0.1-0.1-0.2-0.1-0.3c-0.9-0.8-2.2-1.2-3.4-1
			c-0.2,0-0.3,0.2-0.3,0.4l0,0l0,0c0.1,0.2,0.3,0.3,0.5,0.3c1-0.2,2,0.1,2.7,0.8C345,198.1,345.1,198.2,345.2,198.2z"/>
		<path class="st13" d="M337.5,202.3l1.4-0.8C338.9,201.5,338.5,202.8,337.5,202.3z"/>
		<path class="st9" d="M340.6,298.3c4-10.9,7.4-27.4,7.2-41.8c-9.7,0.6-18.4-0.4-27.9-2.3c-1.6,17-1.5,24.2-7,42
			C313,296.1,336,301.1,340.6,298.3z"/>
		<path class="st14" d="M347.9,256.5l-9.3,6.8l-11.7-0.7l-6.9-8.4C320,254.2,330,257,347.9,256.5z"/>
		<path class="st9" d="M347.9,256.5l-4.3-8.2l-17.2-1.2l-6.4,7.1C320,254.2,334.3,258.1,347.9,256.5z"/>
		<path class="st21" d="M336.1,281.1L335,279c-0.4-0.8-1.2-1.4-2.1-1.5l-5.4-1.1c-1.7-0.3-2.2,0.8-3.4,2l-0.7,0.8
			c1.5,3.7,6,6.6,6,6.6l1.2,1c1,0.8,2.5,0.7,3.3-0.2l0,0l1.9-2.3C336.5,283.3,336.6,282.1,336.1,281.1z"/>
		<path class="st0" d="M313.9,231l-0.7,0.8c-0.4,0.5-0.9,1-1.2,1.6c-0.8,1.1-1.6,2.1-2.4,3.2c-1.5,2.2-2.9,4.5-4.2,6.8
			c-1.3,2.4-2.4,4.9-3.3,7.4c-0.5,1.3-0.9,2.6-1.2,3.9c-0.4,1.4-0.7,2.7-0.9,4.1l-0.1,1v0.1v0.3v0.5c0,0.3,0,0.7,0,1
			c0.1,1.1,0.3,2.3,0.8,3.3c0.7,1.6,1.6,3.1,2.8,4.4c1.9,2.1,3.9,4.1,6.2,5.8c2.1,1.7,4.2,3.1,6.4,4.6c1.1,0.7,2.2,1.4,3.2,2.1
			l1.7,1c0.6,0.3,1.1,0.7,1.7,1l5.1-10.2c-0.5-0.2-1-0.4-1.5-0.6l-1.6-0.7c-1-0.5-2.1-1-3.1-1.6c-2-1.1-4-2.3-5.8-3.6
			c-1.7-1.2-3.3-2.5-4.8-4.1c-0.5-0.5-0.9-1.1-1.2-1.8c0-0.2-0.1-0.3-0.1-0.2l0,0l0,0l0,0V261l0.1-0.8c0.7-4.3,12.7-20.1,12.6-26.7
			l0,0c0-2.6-2.2-4.7-4.8-4.7c-0.1,0-0.3,0-0.4,0C315.8,229.1,314.6,229.8,313.9,231z"/>
		<path class="st15" d="M313.9,231l-0.7,0.8c-0.4,0.5-0.9,1-1.2,1.6c-0.8,1.1-1.6,2.1-2.4,3.2c-1.5,2.2-2.9,4.5-4.2,6.8
			c-1.3,2.4-2.4,4.9-3.3,7.4c-0.5,1.3-0.9,2.6-1.2,3.9c-0.4,1.4-0.7,2.7-0.9,4.1l-0.1,1v0.1v0.3v0.5c0,0.3,0,0.7,0,1
			c0.1,1.1,0.3,2.3,0.8,3.3c0.7,1.6,1.6,3.1,2.8,4.4c1.9,2.1,3.9,4.1,6.2,5.8c2.1,1.7,4.2,3.1,6.4,4.6c1.1,0.7,2.2,1.4,3.2,2.1
			l1.7,1c0.6,0.3,1.1,0.7,1.7,1l5.1-10.2c-0.5-0.2-1-0.4-1.5-0.6l-1.6-0.7c-1-0.5-2.1-1-3.1-1.6c-2-1.1-4-2.3-5.8-3.6
			c-1.7-1.2-3.3-2.5-4.8-4.1c-0.5-0.5-0.9-1.1-1.2-1.8c0-0.2-0.1-0.3-0.1-0.2l0,0l0,0l0,0V261l0.1-0.8c0.7-4.3,12.7-20.1,12.6-26.7
			l0,0c0-2.6-2.2-4.7-4.8-4.7c-0.1,0-0.3,0-0.4,0C315.8,229.1,314.6,229.8,313.9,231z"/>
	</g>
	<path class="st13" d="M332.4,198.7c0.9-0.7,2.1-0.9,3.2-0.6c-0.1-1.6,0-3.3,0-4.8c0.8,1.4,1.4,3,1.7,4.6c-0.1,0.2-0.5,0.1-0.7,0
		c1.7-0.2,1.9-0.1,2-1.8c0-0.8-0.7-2.6-1.5-3c2,0.9,3.6,2.5,4.4,4.6c1-0.4,2.1-0.4,3.2-0.2c0.5-1.4-0.4-3-1.5-4
		c1.6,0.7,2.6,2.3,2.8,4h2.6c-0.4-2.7-1.8-5.2-4-6.8c-5.9-4.3-11-2.7-12-1.4s-1.5,3-1.4,4.7C331.3,195.6,331.7,197.2,332.4,198.7z"
		/>
	<path class="st13" d="M333.7,192.4c-4.7,8.7-6,18.8-3.6,28.3c-3.3-5-5.1-11.1-6-17.1c-0.6-3-0.5-6.1,0.4-9c1-2.9,3.4-5.4,6.3-5.7
		c1-0.1,2.1,0.2,2.9,0.8C334.5,190.5,334.2,191.5,333.7,192.4z"/>
</g>
<g id="doc3">
	<path class="st0" d="M229.7,413.2l10.3,1.2c8.9-26.2,14.8-52.7,19-70.7c2.3-9.7,4-18.4,5.2-26l1,28l5.7,71.2l10.4-0.5
		c12.8-125.2-2.7-155.9-2.7-155.9l-30.4-3.6c-0.9,5.6-1.4,11.3-1.6,17l-0.8,10l-8.5,61.5L229.7,413.2z"/>
	<path class="st24" d="M229.7,413.2l10.3,1.2c8.9-26.2,14.8-52.7,19-70.7c2.3-9.7,4-18.4,5.2-26l1,28l5.7,71.2l10.4-0.5
		c12.7-127.5-2.7-155.9-2.7-155.9l-30.4-3.5c-0.9,5.6-1.4,11.3-1.6,17l-0.8,10l-8.5,61.5L229.7,413.2z"/>
	<path class="st14" d="M259.1,343.8c2.3-9.7,4-18.4,5.2-26c-0.6-8.9-1.8-17.9-3.4-26.7C260.9,291.1,258.4,325.9,259.1,343.8z"/>
	<path class="st0" d="M229,412.3l-1.7,12.9c-0.1,0.6-0.5,1-1,1.2c-1.4,0.5-4.2,2.2-5.3,2.5c-2,0.2-4,0.4-6.1,0.4
		c-0.7,0-1.3,0.5-1.4,1.2l0,0c-0.2,0.8,0.3,1.6,1.1,1.8l19,3.1c0.8,0.2,1.6-0.3,1.7-1.1L240,415c0.2-0.8-0.3-1.6-1.1-1.8l-8.1-2.2
		c-0.8-0.2-1.6,0.2-1.8,1C229,412.2,229,412.2,229,412.3z"/>
	<path class="st0" d="M270.3,414.5l0.8,13c0.1,0.6-0.2,1.1-0.6,1.4c-1.2,0.8-2.7,2.3-3.7,2.8c-1.9,0.7-3.8,1.4-5.8,2
		c-0.6,0.2-1,0.8-1,1.5l0,0c0,0.8,0.7,1.4,1.5,1.4l0,0l17.9-0.9c0.8,0,1.4-0.7,1.4-1.5l1-19.9c0-0.8-0.7-1.5-1.5-1.5h-8.4
		c-0.8,0-1.5,0.6-1.6,1.4C270.2,414.4,270.2,414.5,270.3,414.5z"/>
	<g id="freepik--freepik--character-1--inject-4--inject-12">
		<path class="st21" d="M261,226.8c1.2,0.4,14.9-11.3,12.6-12.1c-4.6-0.7-3.9-5-3.5-7.2c0.2-1.6,0.6-3.1,1.2-4.6l-9.2,2.2
			c0.3,1.3,0.5,2.6,0.6,3.9c0,0.7,0,1.3,0,2c0,1.3-1.2,3.1-4,2.9C256.6,214.4,259.6,227.1,261,226.8z"/>
		<path class="st0" d="M238.1,317.8c26.8,9.8,52.9,4.6,52.9,4.6c0.3-14.4-5-55.4-5-55.4c-0.1-1.6-0.2-3.1-0.2-4.7
			c-0.1-0.9-0.1-1.7,0-2.6c-0.1-11.6,1.3-28.3,4.1-39.5c-3.3-3.2-7.7-5-12.2-5.1l-1.5-1.8l-12.2,6.2l-5.4-7.5
			c-0.6-1.2-3.1,1.3-3.1,1.3l-9.4,0.5c-5.9,11.2,0,34.6,0,34.6c0,0.7-0.1,1.5-0.2,2.2C243.7,277,238.1,317.8,238.1,317.8z"/>
		<path class="st15" d="M238.1,317.8c26.8,9.8,52.9,4.6,52.9,4.6c0.3-14.4-5-55.4-5-55.4c-0.1-1.6-0.2-3.1-0.2-4.7
			c-0.1-0.9-0.1-1.7,0-2.6c-0.1-11.6,1.3-28.3,4.1-39.5c-3.3-3.2-7.7-5-12.2-5.1l-1.5-1.8l-12.2,6.2l-5.4-7.5
			c-0.6-1.2-3.1,1.3-3.1,1.3l-9.4,0.5c-5.9,11.2,0,34.6,0,34.6c0,0.7-0.1,1.5-0.2,2.2C243.7,277,238.1,317.8,238.1,317.8z"/>
		<path class="st0" d="M235.4,249.9c0.3,2,5.6,11.6,17.8-2.8c1.3-1.5,1-4.1-0.1-5.7c-0.8-1.1-2.1-1.7-3.4-1.9
			c-0.4-0.1-0.8-0.1-1.3-0.1c1.4-8.4,1.4-16.9-0.2-25.3c-2.1-0.7-4.4-0.3-6.1,1.1c-1.4,1.5-2.5,3.3-3.2,5.3
			C235.3,229.8,234.1,239.9,235.4,249.9z"/>
		<path class="st15" d="M235.4,249.9c0.3,2,5.6,11.6,17.8-2.8c1.3-1.5,1-4.1-0.1-5.7c-0.8-1.1-2.1-1.7-3.4-1.9
			c-0.4-0.1-0.8-0.1-1.3-0.1c1.4-8.4,1.4-16.9-0.2-25.3c-2.1-0.7-4.4-0.3-6.1,1.1c-1.4,1.5-2.5,3.3-3.2,5.3
			C235.3,229.8,234.1,239.9,235.4,249.9z"/>
		<path class="st0" d="M255.7,238.3c-1.8,3.6-3.5,7.9-5.6,10.6c-1.4,1.8-5.9,2.5-7.6,1c-1.4-1.2-1.7-5.5,0.4-8.4
			c0,0,6.2-4.4,8.5-6.7c1.4-1.5,1.2-7.1,11-8.1c2.1,1.1,3.3,3.5,2.8,5.8c-0.2,0.6-5.1,3.8-6,4.6
			C258.1,237.6,256.9,238.1,255.7,238.3z"/>
		<path class="st14" d="M262.5,209.1c0,0.7,0,1.3,0,2c2.9-0.1,5.6-1.4,7.5-3.5c0.2-1.6,0.6-3.1,1.2-4.6l-9.2,2.2
			C262.3,206.5,262.4,207.8,262.5,209.1z"/>
		<path class="st9" d="M279.3,233.4l-9.5-0.7c-0.4,0-0.7-0.3-0.6-0.7v-0.1l0.8-4.5c0.1-0.4,0.5-0.7,0.9-0.7l9.5,0.7
			c0.4,0,0.7,0.3,0.6,0.7v0.1l-0.8,4.5C280.1,233.2,279.7,233.5,279.3,233.4z"/>
		<path class="st13" d="M267.2,180.7c0,0-11-1.1-12.7,7.1c-1.2,5,0.3,10.3,3.9,13.9L267.2,180.7z"/>
		<path class="st21" d="M265.3,182.5c-7.5,0-10,4-10.5,11.8c-0.7,9.7,1.5,16.6,10.9,14.5C278.5,206,277.8,182.5,265.3,182.5z"/>
		<path class="st25" d="M259.5,193.5c-0.8,1-1.7,1.9-2.7,2.7c0.3,0.7,1,1.1,1.8,1.1L259.5,193.5z"/>
		<path class="st13" d="M268.1,190.5c0.1,0,0.1,0,0.2-0.1s0.2-0.3,0.1-0.4l0,0c-0.8-1.1-2-1.7-3.3-1.8c-0.2,0-0.3,0.1-0.3,0.2l0,0
			c0,0.2,0.1,0.3,0.3,0.3l0,0c1.1,0.1,2.2,0.6,2.8,1.6C267.9,190.5,268,190.5,268.1,190.5z"/>
		<path class="st13" d="M256.7,187.7L256.7,187.7c1-0.5,2-0.5,2.9-0.1c0.1,0.1,0.3,0,0.4-0.1s0-0.3-0.1-0.4l0,0
			c-1.1-0.5-2.3-0.4-3.3,0.1c-0.1,0.1-0.2,0.3-0.1,0.4C256.5,187.7,256.6,187.7,256.7,187.7z"/>
		<path class="st13" d="M273.5,195.2c0,0-3.5-6.2-3-11c0,0-14.9-6.1-15.7,9c0,0-1.4-13.4,11.5-13.8c16-0.4,12.9,18.7,6.2,24.3
			C272.6,203.9,275.7,199.1,273.5,195.2z"/>
		<path class="st0" d="M254.1,196.2c1.2-1.9,9.4-0.8,17,0.1c0,0.1,0,0.2,0,0.3c1.8-2.7,3.8-3.1,5.3-1c-2.1-1.9-3.8-0.9-5.2,1.5
			c0.5,2.3,0.6,4.7,0.4,7c2.1-1.3,3.5-4.1,5-7c-1.4,3.4-2.8,6.7-5.1,7.9c0,0.2-0.1,0.5-0.1,0.7c-3.9,3.7-10.6,4.7-14.2,1.8
			C254.6,205.3,253.8,201.3,254.1,196.2z"/>
		<path class="st10" d="M254.1,196.2c1.2-1.9,9.4-0.8,17,0.1c0,0.1,0,0.2,0,0.3c1.8-2.7,3.8-3.1,5.3-1c-2.1-1.9-3.8-0.9-5.2,1.5
			c0.5,2.3,0.6,4.7,0.4,7c2.1-1.3,3.5-4.1,5-7c-1.4,3.4-2.8,6.7-5.1,7.9c0,0.2-0.1,0.5-0.1,0.7c-3.9,3.7-10.6,4.7-14.2,1.8
			C254.6,205.3,253.8,201.3,254.1,196.2z"/>
		<path class="st13" d="M263.5,193c-0.1,0.6,0.1,1.2,0.5,1.2s0.8-0.4,0.9-0.9s-0.1-1.2-0.5-1.2S263.7,192.4,263.5,193z"/>
		<path class="st13" d="M264.6,192.1l-1.2-0.8C263.4,191.3,263.9,192.6,264.6,192.1z"/>
		<path class="st13" d="M256.7,192.1c-0.1,0.6,0.1,1.2,0.5,1.2s0.8-0.3,1-1s-0.1-1.2-0.5-1.2C257.3,191.1,256.9,191.4,256.7,192.1z"
			/>
		<path class="st13" d="M257.8,191.2l-1.2-0.8C256.6,190.4,257.1,191.7,257.8,191.2z"/>
		<path class="st21" d="M277.7,197.4c-0.5,1.5-1.5,2.7-2.9,3.4c-1.8,0.9-3.1-0.6-2.9-2.5c0.2-1.7,1.3-4.2,3.3-4.4
			c1.4,0,2.6,1.1,2.7,2.5C277.9,196.8,277.8,197.1,277.7,197.4z"/>
		<path class="st0" d="M275.1,198.5c1.1-5.1-2.7-12.8-10.8-13.3c-10.4-1.6-9.9,7.8-9.9,7.8s-2.1-7.4,5.1-13c0,0,0.3-4.8,13.1-3.4
			c7,0.8,9,8.2,9.3,12.3c0.5,6.7-5.3,12.6-5.3,12.6c0.4,1.5-2.9,1.7-2.9,1.7C274.5,201.9,274.7,199.9,275.1,198.5z"/>
		<path class="st15" d="M275.1,198.5c1.1-5.1-2.7-12.8-10.8-13.3c-10.4-1.6-9.9,7.8-9.9,7.8s-2.1-7.4,5.1-13c0,0,0.3-4.8,13.1-3.4
			c7,0.8,9,8.2,9.3,12.3c0.5,6.7-5.3,12.6-5.3,12.6c0.4,1.5-2.9,1.7-2.9,1.7C274.5,201.9,274.7,199.9,275.1,198.5z"/>
	</g>
	<path class="st0" d="M289.7,219.9c0,0,11.2,26.2,8.5,37.9s-22-1.4-22-1.4l-0.6-6.6l10.5,0.2l-3.7-17
		C282.9,227.9,287.8,221.7,289.7,219.9z"/>
	<path class="st15" d="M289.7,219.9c0,0,11.2,26.2,8.5,37.9s-22-1.4-22-1.4l-0.6-6.6l10.5,0.2l-3.7-17
		C282.9,227.9,287.8,221.7,289.7,219.9z"/>
	<path class="st0" d="M256.8,231.4l1.8-0.1c0.6,0,1,0.4,1,1l0,0c0,0.4-0.2,0.7-0.5,0.9l0.4,16.2c0,0.6-0.5,1.2-1.1,1.2l0,0H258
		c-0.6,0-1.2-0.5-1.2-1.1l-0.4-16.2c-0.3-0.2-0.5-0.5-0.6-0.9l0,0C255.9,231.9,256.3,231.5,256.8,231.4z"/>
	<path class="st13" d="M258.9,231.1l-2.2,0.1c-0.1,0-0.2,0.2-0.2,0.4l0.1,1.8c0,0.2,0.1,0.4,0.2,0.4l2.2-0.1c0.1,0,0.2-0.2,0.2-0.4
		l-0.1-1.8C259.1,231.3,259,231.1,258.9,231.1z"/>
	<polygon class="st13" points="256,231.6 259.5,231.4 259.5,230 256,230.1 	"/>
	<path class="st26" d="M256.8,231.4l1.8-0.1c0.6,0,1,0.4,1,1l0,0c0,0.4-0.2,0.7-0.5,0.9l0.4,16.2c0,0.6-0.5,1.2-1.1,1.2l0,0H258
		c-0.6,0-1.2-0.5-1.2-1.1l-0.4-16.2c-0.3-0.2-0.5-0.5-0.6-0.9l0,0C255.9,231.9,256.3,231.5,256.8,231.4z"/>
	<path class="st13" d="M258,240.9c0.5,0,0.9-0.1,0.9-0.3l0.2,8.9c0,0.3-0.3,0.6-0.6,0.6l0,0H258c-0.4,0-0.6-0.3-0.7-0.6l-0.2-8.9
		C257.1,240.8,257.5,240.9,258,240.9z"/>
	<path class="st0" d="M257.1,240.6c0,0.2,0.4,0.3,0.9,0.3s0.9-0.1,0.9-0.3s-0.4-0.3-0.9-0.3S257.1,240.5,257.1,240.6z"/>
	<path class="st27" d="M257.1,240.6c0,0.2,0.4,0.3,0.9,0.3s0.9-0.1,0.9-0.3s-0.4-0.3-0.9-0.3S257.1,240.5,257.1,240.6z"/>
	<g class="st17">
		<path class="st9" d="M258.4,233.4c0.1,5.4,0.3,10.7,0.4,16.1c0,0.1-0.1,0.3-0.3,0.3c-0.1,0-0.3-0.1-0.3-0.3
			c-0.1-5.3-0.2-10.7-0.4-16.1c0-0.1,0.2-0.2,0.3-0.2C258.3,233.2,258.4,233.3,258.4,233.4L258.4,233.4z"/>
	</g>
	<path class="st0" d="M253.8,245c0.8-0.9,8.3-0.7,9.6-0.1c1,0.6,4.1,2.5,4.1,2.5l13.4,0.8l0.4,11.9l-14.6-6.5
		c-0.7,0.3-9.5-1.2-11.1-2.1S252.9,245.9,253.8,245z"/>
	<path class="st14" d="M286,250c0.9,0.1,1.8,0.4,2.7,0.9c-2.1-3.5-3.8-7.3-5-11.2C284.4,242.9,285.4,246.6,286,250z"/>
	<polygon class="st14" points="247.9,268.9 282.7,270.8 283,274.1 247.6,272 	"/>
</g>
<g id="doc2">
	<path class="st13" d="M181,182.6c0.4-1.3,1.8-2.1,3.1-1.7c0.4,0.1,0.8,0.4,1.1,0.7l0.1,0.1c1.4,1.8,1.6,4.3,0.6,6.3s-2.5,3.7-4.3,5
		c-1.2,1.1-2.7,1.6-4.3,1.6c-1.6-0.1-4.4-2.3-4.1-6.3c0.1-1.7,0.6-3.4,0.7-5.1c0.2-1.7-0.3-3.4-1.4-4.8c0.7,0.2,1.4,0.6,1.8,1.2
		c0-1.1-0.7-2.1-1.7-2.6c1.4-0.9,3.1-1.1,4.6-0.5c1.4,0.7,2.4,2.1,2.6,3.6c0.7-0.9,0.8-2.2,0.4-3.2c-0.5-1-1.5-1.7-2.6-1.8
		c2.3-0.4,4.9,0.9,4.4,4.2C181.9,180.5,181.5,181.6,181,182.6z"/>
	<path class="st13" d="M181,182.6c0.4-1.3,1.8-2.1,3.1-1.7c0.4,0.1,0.8,0.4,1.1,0.7l0.1,0.1c1.4,1.8,1.6,4.3,0.6,6.3s-2.5,3.7-4.3,5
		c-1.2,1.1-2.7,1.6-4.3,1.6c-1.6-0.1-4.4-2.3-4.1-6.3c0.1-1.7,0.6-3.4,0.7-5.1c0.2-1.7-0.3-3.4-1.4-4.8c0.7,0.2,1.4,0.6,1.8,1.2
		c0-1.1-0.7-2.1-1.7-2.6c1.4-0.9,3.1-1.1,4.6-0.5c1.4,0.7,2.4,2.1,2.6,3.6c0.7-0.9,0.8-2.2,0.4-3.2c-0.5-1-1.5-1.7-2.6-1.8
		c2.3-0.4,4.9,0.9,4.4,4.2C181.9,180.5,181.5,181.6,181,182.6z"/>
	<path class="st14" d="M181,182.6c0.4-1.3,1.8-2.1,3.1-1.7c0.4,0.1,0.8,0.4,1.1,0.7l0.1,0.1c1.4,1.8,1.6,4.3,0.6,6.3s-2.5,3.7-4.3,5
		c-1.2,1.1-2.7,1.6-4.3,1.6c-1.6-0.1-4.4-2.3-4.1-6.3c0.1-1.7,0.6-3.4,0.7-5.1c0.2-1.7-0.3-3.4-1.4-4.8c0.7,0.2,1.4,0.6,1.8,1.2
		c0-1.1-0.7-2.1-1.7-2.6c1.4-0.9,3.1-1.1,4.6-0.5c1.4,0.7,2.4,2.1,2.6,3.6c0.7-0.9,0.8-2.2,0.4-3.2c-0.5-1-1.5-1.7-2.6-1.8
		c2.3-0.4,4.9,0.9,4.4,4.2C181.9,180.5,181.5,181.6,181,182.6z"/>
	<g id="freepik--freepik--character-1--inject-22--inject-12">
		<polygon class="st28" points="190.4,428.7 197.8,429.1 198,421.2 190.7,420.8 		"/>
		<path class="st13" d="M198.2,427.6l-8.2-0.1c-0.3,0-0.6,0.2-0.6,0.5l-1.6,6.5c-0.1,0.6,0.2,1.2,0.8,1.3l0,0c0.1,0,0.2,0,0.2,0
			c2.9,0,4.3-0.1,7.9-0.1c2.2,0,8,0.4,11.1,0.4s3.5-3,2.3-3.3c-5.7-1.4-9-3.1-10.8-4.8C199.1,427.8,198.7,427.6,198.2,427.6z"/>
		<polygon class="st14" points="198,420.1 197.9,423.8 190.6,423.3 190.7,419.7 		"/>
		<path class="st0" d="M211.4,269.6c1.5,8.8-1.1,51.7-3.9,70.6c-3.7,25.1-8.1,81.5-8.1,81.5l-9.8-0.8c0,0-1.4-59.6,1-79.8
			c-0.7-26-2.7-71.5-2.7-71.5L211.4,269.6z"/>
		<path class="st14" d="M211.4,269.6c1.5,8.8-1.1,51.7-3.9,70.6c-3.7,25.1-8.1,81.5-8.1,81.5l-9.8-0.8c0,0-1.4-59.6,1-79.8
			c-0.7-26-2.7-71.5-2.7-71.5L211.4,269.6z"/>
		<path class="st14" d="M188.9,298c-0.2-6.6,4.5-12.4,6.2,0.1c1,7.9-1.6,21.8-5,31.5C189.8,319.4,189.3,308.1,188.9,298z"/>
		<polygon class="st28" points="136.7,411.4 142.3,414.9 147.2,406.9 141.7,403.3 		"/>
		<path class="st13" d="M143.1,414.8l-6.1-5.6c-0.2-0.2-0.5-0.2-0.7,0l0,0l-5,4.4c-0.5,0.5-0.5,1.3,0,1.8l0,0l0,0
			c2.2,1.9,3.3,2.7,6,5.2c1.6,1.5,3.6,3.7,5.9,5.8s4.4-0.1,3.6-1.2c-3.4-4.9-2.7-6.6-3.1-9.1C143.6,415.5,143.4,415.1,143.1,414.8z"
			/>
		<polygon class="st14" points="147.2,406.9 145,410.5 139.4,406.8 141.7,403.3 		"/>
		<path class="st0" d="M196.8,279.7c0,0-9.2,55.6-14.6,76.6c-3.9,15.1-35,52.8-35,52.8l-7.6-4.5c0,0,11.8-30,27.9-49.8
			c1-23.5-1-62.3,8.3-75L196.8,279.7z"/>
		<path class="st14" d="M196.8,279.7c0,0-9.2,55.6-14.6,76.6c-3.9,15.1-35,52.8-35,52.8l-7.6-4.5c0,0,11.8-30,27.9-49.8
			c1-23.5-1-62.3,8.3-75L196.8,279.7z"/>
		<path class="st28" d="M206.8,226.9c0.6,4.7,1.5,9.3,2.5,13.9s2.1,9.2,3.5,13.8l0.2,0.9l0.3,1c0.2,0.6,0.5,1.2,0.7,1.8
			c0.5,1.2,1.1,2.3,1.7,3.4c1.2,2.1,2.5,4.2,3.9,6.2c2.8,3.9,5.8,7.6,9.1,11c0.7,0.9,2,1,2.8,0.3c0.9-0.7,1-2,0.3-2.8l0,0
			c-2.4-3.8-4.9-7.8-7-11.7c-1.1-2-2.1-4-3-6c-0.4-1-0.8-2-1.2-3c-0.2-0.5-0.3-1-0.4-1.4l-0.2-0.7l-0.2-0.8c-1-4.4-1.9-8.9-2.7-13.4
			s-1.6-9.1-2.3-13.6l0,0c-0.3-2.2-2.4-3.7-4.6-3.4S206.5,224.8,206.8,226.9L206.8,226.9L206.8,226.9z"/>
		<path class="st28" d="M230.8,275.5l5.5,3.5l-6.6,3.8c0,0-2.6-3-2-6.2L230.8,275.5z"/>
		<path class="st28" d="M236.3,285.6l-3.1,0.8c-0.7,0.2-1.5-0.1-1.8-0.8l-1.6-2.8l6.6-3.8l1.2,4.6
			C237.7,284.5,237.2,285.4,236.3,285.6z"/>
		<path class="st0" d="M214.3,222.6c1.4-0.4,5.3,13.1,5.3,13.1l-10.5,9.7c0,0-3.2-13.9-4.6-18.5
			C203.1,222.1,210.5,219.4,214.3,222.6z"/>
		<path class="st0" d="M215.9,226.2c0.1,14.7-2.7,26.1-4,36.2c-0.2,1.3-0.4,5.5,0.8,14.4c0.9,7.3,1.3,14.6,1.4,21.9l-46.1-2.9
			c1.5-19.8,11.2-31.8,11.2-34.5c0-8.2-0.9-16.6-4.5-32.7c-0.8-3.7,1.5-7.4,5.2-8.2c0.2,0,0.4-0.1,0.6-0.1c1.9-0.3,4.1-0.5,6.3-0.6
			c4.9-0.4,9.8-0.4,14.7-0.1c3.4,0.3,7.1,0.9,9.8,1.3C213.9,221.4,215.8,223.6,215.9,226.2z"/>
		<path class="st9" d="M185.6,242.6l9.6,0.1c0.4,0,0.7-0.3,0.7-0.6l0,0V242l-0.4-4.5c-0.1-0.4-0.4-0.7-0.9-0.7l-9.6-0.1
			c-0.4,0-0.7,0.2-0.7,0.6l0,0v0.1l0.4,4.6C184.8,242.3,185.2,242.6,185.6,242.6z"/>
		<path class="st29" d="M201.6,219.7c0,0,5.2,3.8-0.5,12.9c-4.5-4.5-9.2-8.8-14.1-12.9H201.6z"/>
		<path class="st0" d="M183,271.5h-0.9c-0.2,0-0.3-0.1-0.3-0.2l0.4-3.8c0-0.1,0.2-0.2,0.3-0.2h0.9c0.2,0,0.3,0.1,0.3,0.2l-0.4,3.8
			C183.3,271.4,183.2,271.5,183,271.5z"/>
		<path class="st0" d="M209.1,271.4h-0.9c-0.2,0-0.3-0.1-0.3-0.2l0.4-3.8c0-0.1,0.2-0.2,0.3-0.2h0.9c0.2,0,0.3,0.1,0.3,0.2l-0.4,3.7
			C209.4,271.3,209.2,271.4,209.1,271.4z"/>
		<path class="st0" d="M196.1,271.4h-0.9c-0.2,0-0.3-0.1-0.3-0.2l0.4-3.8c0-0.1,0.2-0.2,0.3-0.2h0.9c0.2,0,0.3,0.1,0.3,0.2l-0.4,3.8
			C196.4,271.4,196.2,271.4,196.1,271.4z"/>
		<path class="st13" d="M185.9,281.5l18.1,3c0.7,0.1,1.4-0.3,1.6-1l7.4-27.3c0.2-0.6-0.1-1.2-0.7-1.4c-0.1,0-0.1,0-0.2,0l-18.1-3
			c-0.7-0.1-1.4,0.3-1.6,1l-7.4,27.3c-0.2,0.6,0.1,1.2,0.7,1.4C185.8,281.5,185.8,281.5,185.9,281.5z"/>
		<path class="st13" d="M200.3,255.1l4.3,0.7c0.9,0.1,1.7-0.4,2-1.3l0.7-2.5l-7.4-1.2l-0.7,2.5c-0.2,0.7,0.2,1.5,0.9,1.8
			C200.2,255.1,200.3,255.1,200.3,255.1z"/>
		<path class="st15" d="M200.3,255.1l4.3,0.7c0.9,0.1,1.7-0.4,2-1.3l0.7-2.5l-7.4-1.2l-0.7,2.5c-0.2,0.7,0.2,1.5,0.9,1.8
			C200.2,255.1,200.3,255.1,200.3,255.1z"/>
		<path class="st13" d="M193.2,251.8l0.9,0.1c-0.7-0.1-1.4,0.3-1.6,1l-7.4,27.3c-0.2,0.6,0.2,1.2,0.8,1.4c0,0,0.1,0,0.2,0l-0.9-0.1
			c-0.6-0.1-1-0.7-0.9-1.3c0-0.1,0-0.1,0-0.2l7.5-27.3C191.8,252.1,192.5,251.7,193.2,251.8z"/>
		<path class="st15" d="M193.2,251.8l0.9,0.1c-0.7-0.1-1.4,0.3-1.6,1l-7.4,27.3c-0.2,0.6,0.2,1.2,0.8,1.4c0,0,0.1,0,0.2,0l-0.9-0.1
			c-0.6-0.1-1-0.7-0.9-1.3c0-0.1,0-0.1,0-0.2l7.5-27.3C191.8,252.1,192.5,251.7,193.2,251.8z"/>
		<path class="st28" d="M171.6,229.7c-1.5,3.6-2.9,7.2-4.2,10.9c-0.6,1.8-1.2,3.7-1.8,5.6c-0.6,2-1.1,4-1.4,6.1
			c-0.1,0.6-0.2,1.3-0.2,1.9c0,0.5,0,1,0.1,1.5c0,0.2,0.1,0.4,0.1,0.6l0.1,0.4c0.1,0.2,0.1,0.3,0.2,0.5l0.1,0.2v0.1l0,0v0.1l0.1,0.2
			c0.6,0.9,1.1,1.7,1.8,2.5c1.3,1.7,2.7,3.2,4.2,4.6c1.6,1.4,3.3,2.7,5.2,3.7c1,0.5,2,1,3,1.3c0.5,0.2,1.1,0.3,1.6,0.5l0.8,0.2
			c0.3,0.1,0.6,0.1,1,0.1l0.6-4c-0.1-0.1-0.3-0.2-0.4-0.2l-0.5-0.3c-0.4-0.2-0.7-0.4-1.1-0.6c-0.7-0.5-1.4-1-2.1-1.5
			c-1.3-1.1-2.5-2.3-3.6-3.7c-0.5-0.7-1.1-1.4-1.6-2.1s-1-1.4-1.4-2.1c-0.4-0.7-0.9-1.6-1.3-2.3v-0.1v-0.1l0,0v0.1v0.2
			c0,0.1,0.1,0.2,0.1,0.3s0,0.1,0.1,0.2l0.1,0.2c0,0.2,0,0.1,0,0c0-0.3,0.1-0.6,0.2-0.9c0.4-1.5,0.9-3.3,1.6-5.1s1.2-3.5,1.9-5.3
			c1.3-3.5,2.7-7.1,4.1-10.6L171.6,229.7z"/>
		<path class="st28" d="M180.1,270.4l7.2,2.8l1.1-6.9c0,0-4.2-1-6.8,1L180.1,270.4z"/>
		<path class="st28" d="M191.7,272.6l1-2.5c0.4-1-0.1-2.1-1.1-2.5l-3.1-1.3l-1.1,6.9l1.9,0.6C190.3,274,191.3,273.5,191.7,272.6z"/>
		<path class="st0" d="M187.5,224.3c2,8.5-11.4,22.8-11.4,22.8l-10.9-11.7c0,0,5.2-10.7,11.9-14
			C181.8,219.1,186.6,220.5,187.5,224.3z"/>
		<path class="st28" d="M188.3,203.2c0.9,4.7,1.9,13.3-1.4,16.5c5,2.1,9.7,5.1,13.7,8.8c3.7-6.5,1-8.8,1-8.8
			c-5.3-1.2-5.1-5.1-4.2-8.8L188.3,203.2z"/>
		<path class="st14" d="M189.3,204.1c0.1,2.8,0.8,5.6,2,8.1c0.9,1.7,3.2,2.5,5.6,2.7c-0.1-1.3,0.1-2.7,0.4-4L189.3,204.1z"/>
		<path class="st28" d="M180.8,197.4c2.3,7.6,3.1,10.8,7.9,13.8c7.2,4.5,16,0.1,16-8c0-7.3-3.8-18.4-11.9-19.6
			c-5.9-1-11.4,3-12.4,8.9C180.1,194.1,180.2,195.8,180.8,197.4L180.8,197.4z"/>
		<path class="st13" d="M185.7,182c5.1-4.6,10.6-2.8,13.6-1.2s5.1,4.3,5.9,7.6c0.3,1.3,0,4.2-2.5,5c-0.7-1.5-1.6-2.8-2.8-3.9
			c-1.8-1.4-5.2-1.6-6.6-1.2c-1.3,3.1-3.1,6-5.3,8.6c-2.2,2.4-5.4,4.1-8.5,3.6c-3-3.7-3.8-8.8-1.9-13.3
			C179.5,182.8,185.7,182,185.7,182z"/>
		<path class="st28" d="M179.1,201.6c0.4,1.5,1.4,2.7,2.8,3.4c1.8,0.9,3.1-0.6,2.9-2.5c-0.1-1.7-1.2-4.3-3.2-4.4
			c-1.4-0.1-2.6,1-2.7,2.5l0,0C178.9,201,178.9,201.3,179.1,201.6z"/>
		<path class="st13" d="M192.5,197c0.1,0.6,0.6,1.1,1,1s0.6-0.7,0.5-1.3s-0.6-1-1-1S192.4,196.3,192.5,197z"/>
		<path class="st13" d="M199.6,195.3c0.1,0.6,0.6,1.1,1,0.9s0.6-0.7,0.5-1.3s-0.6-1.1-1-1S199.4,194.6,199.6,195.3z"/>
		<path class="st13" d="M199.9,194.1l1.4-0.8C201.2,193.3,200.8,194.6,199.9,194.1z"/>
		<path class="st30" d="M198,196.8c0.9,1.3,2,2.5,3.2,3.5c-0.5,0.6-1.3,1-2.1,0.9L198,196.8z"/>
		<path class="st13" d="M197.5,203.6c0.1,0,0.1-0.1,0.1-0.2c0-0.1-0.1-0.2-0.2-0.1l0,0c-1.6,0.5-3.2,0.2-4.5-0.8
			c-0.1-0.1-0.2,0-0.3,0.1c0,0.1,0,0.2,0,0.2C193.9,203.8,195.7,204.1,197.5,203.6L197.5,203.6z"/>
		<path class="st13" d="M190.4,194.9c0,0,0.1-0.1,0.1-0.2c0.4-0.9,1.1-1.5,2.1-1.8c0.2,0,0.3-0.2,0.3-0.4s-0.2-0.3-0.4-0.3l0,0
			c-1.2,0.3-2.2,1.1-2.6,2.2c-0.1,0.2,0,0.4,0.2,0.5C190.1,195,190.3,195,190.4,194.9z"/>
		<path class="st13" d="M201.6,192.2L201.6,192.2c0.2-0.2,0.2-0.4,0.1-0.6c-0.9-0.8-2.1-1.2-3.2-1c-0.2,0-0.3,0.2-0.3,0.4l0,0
			c0.1,0.2,0.3,0.3,0.5,0.3c0.9-0.2,1.9,0.1,2.6,0.8C201.3,192.3,201.4,192.3,201.6,192.2z"/>
		<path class="st13" d="M192.8,195.7l1.4-0.8C194.2,194.9,193.7,196.3,192.8,195.7z"/>
	</g>
</g>
<g id="doc1">
	<polygon class="st31" points="124.9,428.4 132.4,428.4 132.7,411.1 125.3,411.1 	"/>
	<path class="st13" d="M132.3,427.6h-8.2c-0.3,0-0.6,0.2-0.6,0.5l-1.3,6.6c-0.1,0.6,0.3,1.2,0.9,1.3l0,0c0.1,0,0.1,0,0.2,0
		c2.9,0,7.2-0.2,10.9-0.2c4.3,0,4.7,0.2,9.7,0.2c3.1,0,3.8-3.1,2.6-3.4c-5.9-1.3-7.3-1.4-12.4-4.5
		C133.6,427.8,133,427.6,132.3,427.6z"/>
	<polygon class="st14" points="132.7,411.1 132.6,420.1 125.1,420.1 125.3,411.1 	"/>
	<path class="st0" d="M133.3,427.3c-0.1,0-0.1,0-0.1-0.1s0-0.2,0.1-0.2l0,0c0.3-0.2,3.3-1.7,4.2-1.2c0.2,0.1,0.3,0.3,0.3,0.5
		c0.1,0.3-0.1,0.6-0.3,0.9c-0.5,0.4-1.2,0.5-1.8,0.5C134.9,427.6,134.1,427.5,133.3,427.3z M133.9,427.1c1.6,0.3,2.8,0.2,3.3-0.2
		c0.2-0.1,0.2-0.4,0.2-0.6c0-0.1,0-0.2-0.1-0.2s-0.2-0.1-0.3-0.1C135.9,426.2,134.8,426.6,133.9,427.1z"/>
	<path class="st0" d="M133.2,427.3c0,0-0.1-0.1-0.1-0.2s0.2-2.1,1.1-2.8c0.3-0.2,0.6-0.3,1-0.3c0.5,0,0.7,0.3,0.7,0.5
		c0.2,0.8-1.6,2.4-2.4,2.8h-0.1H133.2z M134.5,424.6c-0.5,0.6-0.8,1.4-0.9,2.3c0.9-0.5,2-1.8,2-2.3c0,0,0-0.2-0.3-0.2h-0.1
		C134.9,424.4,134.7,424.4,134.5,424.6z"/>
	<polygon class="st31" points="70.3,422.6 77.4,424.8 82.9,408.4 75.8,406.2 	"/>
	<path class="st13" d="M77.6,424l-7.8-2.4c-0.3-0.1-0.6,0-0.7,0.3l-3.2,5.9c-0.3,0.6-0.1,1.2,0.5,1.5l0.2,0.1
		c2.8,0.8,6.9,1.9,10.5,3c4.1,1.3,4.4,1.6,9.2,3.1c2.9,0.9,4.6-1.8,3.4-2.5c-5.2-3-6.5-3.5-10.5-8C78.8,424.6,78.2,424.2,77.6,424z"
		/>
	<polygon class="st14" points="82.9,408.4 79.7,418 72.6,415.7 75.8,406.2 	"/>
	<path class="st0" d="M78.7,424c-0.1,0-0.1-0.1-0.1-0.1c0-0.1,0-0.2,0.1-0.2l0,0c0.4-0.1,3.6-0.6,4.3,0.1c0.1,0.1,0.2,0.3,0.2,0.5
		c0,0.3-0.3,0.6-0.6,0.7c-0.6,0.2-1.3,0.2-1.8-0.1C80,424.7,79.3,424.4,78.7,424z M79.2,423.9c1.5,0.8,2.7,1,3.2,0.8
		c0.2-0.1,0.3-0.3,0.3-0.5c0-0.1,0-0.1,0-0.2c-0.1-0.1-0.2-0.1-0.3-0.2C81.4,423.7,80.3,423.8,79.2,423.9L79.2,423.9z"/>
	<path class="st0" d="M78.6,424c0-0.1,0-0.1,0-0.2s0.8-1.9,1.9-2.4c0.3-0.1,0.7-0.1,1,0c0.4,0.2,0.5,0.5,0.5,0.7
		c-0.1,0.9-2.2,1.9-3.2,2h-0.1L78.6,424z M80.6,421.8c-0.7,0.5-1.3,1.1-1.6,1.9c1-0.3,2.5-1.1,2.6-1.6c0,0,0-0.2-0.3-0.3h-0.1
		C81,421.7,80.8,421.7,80.6,421.8L80.6,421.8z"/>
	<path class="st31" d="M152.7,283.6l-2.3-7.6l-6.5,2.1l3.3,8.1C147.2,286.2,154.1,288,152.7,283.6z"/>
	<path class="st31" d="M148.9,283.4l3.8,0.1l3.8,5.7c0.4,0.6,0.5,1.4,0.4,2.1L156,295c-0.3,1.3-1.6,2.2-2.9,2l-1.7-0.2
		c-1.3-0.2-2.3-1.2-2.3-2.5l-0.2-3.2C148.8,291.1,145.3,284.4,148.9,283.4z"/>
	<path class="st0" d="M123.1,206.5c1,6.9,2.1,6.6,3,13.5s1.8,13.8,2.6,20.5l0.1,1.2l0.1,0.8c0,0.3,0.1,0.6,0.1,0.9
		c0.2,1.1,0.4,2.1,0.6,3c0.4,1.9,0.9,3.6,1.4,5.4c1,3.5,5.7,15.4,6.8,18.8c1.7,5.5,1.9,4.7,3.8,10.2c0.6,1.9,2.7,2.9,4.6,2.3
		c0,0,0,0,0.1,0l5.5-1.9c1.9-0.7,2.9-2.8,2.2-4.6l0,0c-1.9-5.3-2.1-4.4-3.8-9.8c-1-3.3-5.7-15.2-6.5-18.4c-0.4-1.6-0.8-3.2-1.2-4.8
		c-0.2-0.8-0.3-1.5-0.4-2.1c0-0.2,0-0.3,0-0.4v-0.5l-0.1-1.3c-0.6-7.1-0.6-4.9-1.3-11.8l-1-10.4c-0.5-5.7-5.1-11-10.8-10.3
		L123.1,206.5z"/>
	<path class="st10" d="M123.1,206.5c1,6.9,2.1,6.6,3,13.5s1.8,13.8,2.6,20.5l0.1,1.2l0.1,0.8c0,0.3,0.1,0.6,0.1,0.9
		c0.2,1.1,0.4,2.1,0.6,3c0.4,1.9,0.9,3.6,1.4,5.4c1,3.5,5.7,15.4,6.8,18.8c1.7,5.5,1.9,4.7,3.8,10.2c0.6,1.9,2.7,2.9,4.6,2.3
		c0,0,0,0,0.1,0l5.5-1.9c1.9-0.7,2.9-2.8,2.2-4.6l0,0c-1.9-5.3-2.1-4.4-3.8-9.8c-1-3.3-5.7-15.2-6.5-18.4c-0.4-1.6-0.8-3.2-1.2-4.8
		c-0.2-0.8-0.3-1.5-0.4-2.1c0-0.2,0-0.3,0-0.4v-0.5l-0.1-1.3c-0.6-7.1-0.6-4.9-1.3-11.8l-1-10.4c-0.5-5.7-5.1-11-10.8-10.3
		L123.1,206.5z"/>
	<path class="st0" d="M137.5,272.5l-1.7,87.7l-0.4,53.5c0,1.4-1.1,2.7-2.5,2.8H124c-1.4-0.1-2.5-1.2-2.5-2.6
		c-1.1-12-5.3-31-3.4-53.4c0,0-6.4-58.9-6.8-76.8l1.4-16L137.5,272.5z"/>
	<path class="st14" d="M117,289.5c0,0,1,14.8-1.5,38.8c0,0-2.2-17.7-3.4-27.3L117,289.5z"/>
	<path class="st0" d="M122.1,273.2l-18.8,89.4l-18.1,52.1c-0.4,1.3-1.7,2-2.9,1.6c-0.1,0-0.1,0-0.2-0.1l-9.3-3.4
		c-1.2-0.6-1.9-2-1.5-3.3c2.6-11.4,4.9-30.4,13.6-50c0,0,5.2-56.7,12.2-87.1L122.1,273.2z"/>
	<path class="st0" d="M103,204.5c0,0,0.3-0.1,0.9-0.3v4.7l17.4,3.2l5.1-3.2v-4.6l0.9,0.1l2.8,2.1c0,0,6,12.9,7.4,45.1l0.5,24.3H92.3
		L103,204.5z"/>
	<path class="st31" d="M110.6,202.1c1.5-4.7,1.2-11.5,0.7-15.7l10.2,10.1c-0.7,1.8-0.9,3.7-0.7,5.6c0.1,0.9,0.9,1.6,1.8,1.7l4.3,1.4
		l0.5,3.4l-2.6,0.7l-3.5,2.9l-8.5-2.9l-9.1-4.2c1.4-0.4,2.8-0.7,4.2-0.8C109.2,204,110.2,203.2,110.6,202.1z"/>
	<path class="st14" d="M115.5,191.2l5.9,5.8c-0.3,1.1-0.5,2.2-0.6,3.3c-2.4-0.6-5.3-2.8-6.1-5.5
		C114.2,193.1,114.8,191.4,115.5,191.2z"/>
	<path class="st31" d="M109.8,178.7c0.4,7.8,0.3,12.3,4.2,16.3c5.9,6,15.5,2.5,17.3-5.2c1.7-7,0.7-18.5-6.9-21.6
		c-5.4-2.3-11.6,0.3-13.8,5.7l0,0C109.9,175.4,109.7,177,109.8,178.7z"/>
	<path class="st13" d="M122.1,180.8c0.1,0.6,0.4,1.1,0.8,1.1s0.7-0.6,0.6-1.2s-0.4-1.1-0.8-1.1S122.1,180.1,122.1,180.8z"/>
	<path class="st13" d="M129.2,180.2c0.1,0.6,0.4,1.1,0.8,1.1s0.7-0.6,0.6-1.2c-0.1-0.6-0.4-1.1-0.8-1.1S129.2,179.6,129.2,180.2z"/>
	<path class="st13" d="M119.3,177.8c-0.1,0-0.1,0-0.2-0.1c-0.1-0.2-0.1-0.4,0-0.5c0.9-0.8,2.1-1.1,3.3-0.9c0.2,0.1,0.3,0.3,0.3,0.5
		c-0.1,0.2-0.3,0.3-0.5,0.3l0,0c-0.9-0.2-1.9,0.1-2.6,0.7C119.6,177.8,119.5,177.9,119.3,177.8z"/>
	<path class="st13" d="M131.9,177.3c-0.1,0.1-0.2,0.1-0.4,0c-0.8-0.5-1.8-0.6-2.7-0.2c-0.2,0.1-0.4,0-0.5-0.2l0,0
		c-0.1-0.2,0-0.4,0.2-0.5c1.1-0.5,2.4-0.4,3.4,0.2c0.2,0.1,0.2,0.3,0.1,0.5l0,0l0,0C132.1,177.2,132,177.3,131.9,177.3z"/>
	<path class="st0" d="M108.7,183.3l0.3,0.4l1.2-1.2c1-1,2.4-1.6,3.9-1.6h3.6c0,2.1,1.8,3.8,3.9,3.8s3.8-1.8,3.8-3.9l0,0
		c0.2-0.2,0.6-0.2,0.8,0c0.2,2.2,2,3.8,4.2,3.6s3.8-2,3.6-4.2s-2-3.8-4.2-3.6c-1.9,0.1-3.5,1.7-3.6,3.6c-0.3-0.1-0.6-0.1-0.8,0
		c-0.2-2.1-2.1-3.6-4.2-3.4c-1.9,0.2-3.3,1.7-3.4,3.6h-3.6c-1.6,0-3.1,0.6-4.3,1.8L108.7,183.3z M126.7,180.6c0-1.9,1.5-3.4,3.4-3.4
		s3.4,1.5,3.4,3.4s-1.5,3.4-3.4,3.4S126.7,182.4,126.7,180.6z M118.2,180.6c0-1.9,1.5-3.4,3.4-3.4s3.4,1.5,3.4,3.4s-1.5,3.4-3.4,3.4
		S118.2,182.4,118.2,180.6L118.2,180.6z"/>
	<path class="st13" d="M112.4,176.9c0.7,1.9,0.7,4.1-0.1,6c-0.4-0.2-0.7-0.3-1.2-0.3c-0.5-0.1-1,0.1-1.3,0.5
		c-0.3,0.5-0.3,1.1-0.1,1.6c0.6,2.5,1.3,4.9,2,7.3c-3.9-4-6.3-9.2-6.8-14.7C107.4,177.2,110.1,177.1,112.4,176.9z"/>
	<path class="st31" d="M106,185.9c1,1.7,2.7,2.8,4.6,3.3c2.5,0.6,3.7-1.7,2.8-4.1c-0.7-2.1-2.9-4.9-5.4-4.4S104.7,183.9,106,185.9z"
		/>
	<path class="st23" d="M126.2,180.6c1,1.8,2.3,3.4,3.7,4.8c-0.7,0.8-1.8,1.2-2.9,1.1L126.2,180.6z"/>
	<path class="st0" d="M105.3,204.1c0,0,0.2,8.7,10.4,11.6l7.8,4.8l4.9-6.6c0,0,1.9-5-3.1-10.2l-1.1-0.1c-0.1,3-1.1,5.9-2.7,8.4
		c-0.6,0.9-13.3-7.9-14.1-8.4l0,0L105.3,204.1z"/>
	<g class="st32">
		<path class="st9" d="M107.3,203.7l14.4,13.6l0.6-1c2.1-3.8,2.7-8.3,1.9-12.6c-0.1,3-1.1,5.9-2.7,8.4
			C120.8,213,108.1,204.2,107.3,203.7z"/>
	</g>
	<path class="st0" d="M124.1,203.7c0,0,6.5,2.7,8.8,20.2c2.3,17.5,3.2,50.3,2.6,65.6s-1.5,25.3,3.2,24.6c0,0,0.4-24.6,0-52
		S141.2,204.2,124.1,203.7z"/>
	<path class="st15" d="M124.1,203.7c0,0,6.5,2.7,8.8,20.2c2.3,17.5,3.2,50.3,2.6,65.6s-1.5,25.3,3.2,24.6c0,0,0.4-24.6,0-52
		S141.2,204.2,124.1,203.7z"/>
	<path class="st0" d="M104.7,203.7c0,0,7.8,4.3,8.6,31.7s0.6,79.2-8.6,80S85.4,311,85.4,311s0.7-9.9,2.4-22.5
		c1.4-10.5,3.9-22.8,4.8-32.8c1.1-11.5-5.2-43.2-1.2-46.4S104.7,203.7,104.7,203.7z"/>
	<path class="st15" d="M104.7,203.7c0,0,7.8,4.3,8.6,31.7s0.6,79.2-8.6,80S85.4,311,85.4,311s0.7-9.9,2.4-22.5
		c1.4-10.5,3.9-22.8,4.8-32.8c1.1-11.5-5.2-43.2-1.2-46.4S104.7,203.7,104.7,203.7z"/>
	<path class="st0" d="M105.1,281.4l-6.3-0.9c-1.8-0.3-3-1.9-2.8-3.7l0.2-1.2l0,0l12.9,1.8l0,0l-0.2,1.2
		C108.6,280.4,106.9,281.6,105.1,281.4L105.1,281.4z"/>
	<path class="st10" d="M105.1,281.4l-6.3-0.9c-1.8-0.3-3-1.9-2.8-3.7l0.2-1.2l0,0l12.9,1.8l0,0l-0.2,1.2
		C108.6,280.4,106.9,281.6,105.1,281.4L105.1,281.4z"/>
	<g class="st32">
		<path class="st9" d="M124.5,247.1c-7.3-5.1-15.9-7.8-24.8-7.8c0.5,11.6-1.2,23.2-4.9,34.3c8.2,3.3,16.2,5.4,25.1,4.8
			C123.1,268,125,258,124.5,247.1z M119.6,277.1c-8,0.6-15.3-1.3-22.7-4.3c3.4-10,4.9-20.5,4.4-31c8,0,15.9,2.5,22.4,7.1
			C124.2,258.6,122.5,267.8,119.6,277.1z"/>
	</g>
	<path class="st33" d="M119.6,277.1c-8,0.6-15.2-1.3-22.7-4.3c3.4-10,4.9-20.5,4.4-31c8,0,15.9,2.5,22.4,7.1
		C124.2,258.6,122.5,267.8,119.6,277.1z"/>
	<path class="st9" d="M112.5,260.3c-0.5,1.1-1.4,2.3-2,3.5l-0.3,0.1c-1.5,0.2-3,0-4.2-0.8c-1-0.8-1.9-1.7-2.6-2.8l0,0
		c1.2-4.2,3.8-7.8,7.4-10.2c0.2-0.1,0.3,0.1,0.4,0.2c0.1,0.1,0.2,0.3,0.3,0.5c0.4,0.9,0.7,1.8,1.1,2.7c0.5,0.8,0.6,1.8,0.4,2.7
		C113.2,257.5,113,259,112.5,260.3z"/>
	<path class="st9" d="M109.2,267.2c0.1,3,0,2.9-0.9,4c-0.6,0.9-1.7,1.3-2.7,1.1c0.2,0,0.3-0.1,0.5-0.1c-1.1-2.8-3-8.3-3.3-10.9
		c0-0.3,0.1-0.5,0.2-0.8l0,0c0.7,1.1,1.6,2.1,2.6,2.9c1.2,0.8,2.7,1.1,4.2,0.8l0.1,0.1C109.4,264.6,109.2,266.3,109.2,267.2z"/>
	<path class="st9" d="M105.6,272.2c-0.2,0-0.3,0.1-0.5,0.1c-1,0.1-2,0-2.9-0.2c-2.6-1.9-2.3-4.1-2.1-6.1c0.2-1.9,0.9-3.6,2.2-5.1
		c0,0.1,0,0.3,0,0.4C102.9,265.1,104,268.7,105.6,272.2z"/>
	<path class="st9" d="M103.1,260.5l-0.1,0.1l0,0C103.1,260.6,103.1,260.4,103.1,260.5z"/>
	<path class="st9" d="M121.4,261.1l-0.1,0.3c-2.8,5.6-4.8,10.1-5.3,10.7l0,0c-0.6,0.3-0.8-0.7-0.7-1.8s0.5-2.2,0.7-3.2
		c0.3-1.5,0.1-3.1-0.6-4.4c-1-3.9-0.2-8,2-11.4c1.6,0.7,2.9,2.1,3.5,3.7C121.6,256.7,122.5,258.8,121.4,261.1z"/>
	<path class="st9" d="M119.7,272.3c-0.1,0.5-0.4,0.9-0.8,1.2c-0.2,0.1-0.5,0.1-0.7,0c-0.3-0.1-0.6-0.2-0.9-0.3
		c-0.2-0.1-0.4-0.2-0.5-0.3c-0.2-0.2-0.2-0.5-0.2-0.8c0.6-0.6,2.3-5,5.3-10.8C121.2,264.8,121.3,268.3,119.7,272.3z"/>
	<path class="st9" d="M116,259.1c-0.7-0.2-1.3-0.4-2-0.6c-1,0.3-2,0.5-3,0.6c0-0.3,0.1-0.6,0.1-1l0.4-0.1c1.3-0.4,2.1-1.7,2.3-3.2
		c0.4-2.4,0.7-4.8,0.8-7.3c0-0.3-0.1-0.7-0.2-1c0-0.5-0.4-0.7-0.6-1.2s0-0.7,0.3-0.8s1,0.3,1.3,0.8l0,0c0.3-0.3,0.7-0.3,1,0l0,0
		c0.3,0.2,0.4,0.6,0.3,0.9c-0.1,0.4-0.4,0.4-0.4,0.8c-0.2,0.2-0.2,0.5-0.3,0.8c-0.2,2.4-0.5,4.7-1,7c-0.3,1.5-0.1,2.8,0.7,3.1
		l0.3,0.1C116,258.5,116,258.8,116,259.1z"/>
	<path class="st31" d="M84.8,247l8.8,5.7l5.2-0.9c0.6-0.1,1.2,0,1.7,0.3l3.3,1.8c0.7,0.4,1.2,1.1,1.3,1.9l0.2,1.7
		c0.1,0.6,0,1.2-0.3,1.7l-0.9,1.5c-0.5,0.9-1.5,1.4-2.6,1.3l-6.4-0.7c-0.5-0.1-1-0.2-1.4-0.6l-3.5-2.9l-11.1-5.6L84.8,247z"/>
	<path class="st0" d="M87.4,255.8c-0.6,1-1.9,1.5-3.1,1.1c-3.1-1.1-8.7-3.9-11.8-9.4c-4.5-7.8,10.1-29.6,14.9-34.7
		c5.4-5.8,11.4-5.2,11.4-5.2c8-0.6,5.2,5.9,1,13.8s-15.3,17.9-16.1,20.2c-0.5,1.4,3.6,4.3,6.6,6.2c1.2,0.7,1.5,2.3,0.8,3.5
		c-0.1,0.2-0.2,0.3-0.4,0.4C89.4,252.8,88.3,254.2,87.4,255.8z"/>
	<path class="st15" d="M87.4,255.8c-0.6,1-1.9,1.5-3.1,1.1c-3.1-1.1-8.7-3.9-11.8-9.4c-4.5-7.8,10.1-29.6,14.9-34.7
		c5.4-5.8,11.4-5.2,11.4-5.2c8-0.6,5.2,5.9,1,13.8s-15.3,17.9-16.1,20.2c-0.5,1.4,3.6,4.3,6.6,6.2c1.2,0.7,1.5,2.3,0.8,3.5
		c-0.1,0.2-0.2,0.3-0.4,0.4C89.4,252.8,88.3,254.2,87.4,255.8z"/>
	<path class="st13" d="M124.3,189.9c-1.4-0.3-2.6-1.2-3.4-2.4c-0.1-0.1,0-0.2,0.1-0.2l0,0c0.1,0,0.2,0,0.2,0.1
		c0.8,1.3,2.2,2.2,3.8,2.4c0.1,0,0.2,0.1,0.2,0.2l0,0c0,0.1-0.1,0.2-0.2,0.2l0,0C124.8,190,124.6,189.9,124.3,189.9z"/>
	<path class="st13" d="M119.4,176.9c3-0.4,5.3-3.4,5.7-6.4c2.7,0.7,4.5,3.1,5.9,5.5c0.4,0.6,1.2,0.9,1.8,0.5c0.1,0,0.1-0.1,0.2-0.1
		c0.5-0.5,0.7-1.2,0.5-1.9s-0.5-1.3-0.9-1.9c-0.5-0.9-1.1-1.7-1.6-2.6c-1.7-2.5-4.5-3.9-7.5-3.9h-0.2c-2.2-1.1-4.7-1.5-7.1-1.2
		c-2.8,0.3-4.6,1.6-6.7,3.5c-3.2,2.7-5.2,6.5-5.8,10.7L119.4,176.9z"/>
	<path class="st13" d="M103.2,232.8c0.2,0,0.3-0.1,0.4-0.3l0,0c0-0.1,0-0.2-0.1-0.3l-1.2-0.9c-2.3-1.7-3.4-4.7-2.6-7.5l3.6-12.9
		c0.7-2.4,3.1-3.7,5.5-3.1c1.6,0.5,2.8,1.8,3.1,3.4l2.7,13.1c0.6,2.8-0.6,5.8-3.1,7.3l-1.3,0.8c-0.1,0.1-0.2,0.3-0.1,0.4l0,0
		c0.1,0.1,0.3,0.2,0.5,0.1l0,0l1.3-0.8c2.7-1.7,4-4.9,3.3-8l-2.7-13.1c-0.6-2.8-3.3-4.5-6-4c-1.9,0.4-3.4,1.8-3.9,3.6l-3.6,13
		c-0.9,3.1,0.3,6.3,2.8,8.2l1.2,0.9C103.1,232.8,103.2,232.8,103.2,232.8z"/>
	<path class="st13" d="M102.2,213.6c0.2,0,0.3-0.1,0.4-0.2c1.1-2.7,4.2-4,6.9-2.8c1.4,0.6,2.5,1.7,3,3.2c0,0.2,0.2,0.3,0.4,0.3
		c0.2,0,0.3-0.2,0.3-0.4l0,0c-1-3.1-4.4-4.8-7.5-3.8c-1.6,0.5-3,1.8-3.6,3.4C101.9,213.4,102,213.6,102.2,213.6L102.2,213.6z"/>
	<path class="st13" d="M107.7,207.6L107.7,207.6c0.2,0,0.3-0.1,0.3-0.3l0,0c0.2-1.6,0.9-4.5,2.5-5c0.2,0,0.3-0.2,0.3-0.4
		s-0.2-0.3-0.4-0.3h-0.1l0,0c-2.3,0.8-2.8,5-2.9,5.5C107.4,207.4,107.5,207.6,107.7,207.6L107.7,207.6z"/>
	<path class="st13" d="M109.7,232.7c0,0.6,0.3,1.1,0.7,1.1s0.8-0.5,0.8-1.1s-0.3-1.1-0.7-1.1S109.7,232.1,109.7,232.7z"/>
	<path class="st13" d="M102.6,232.4c0,0.6,0.3,1.1,0.7,1.1s0.8-0.5,0.8-1.1s-0.3-1.1-0.7-1.1S102.6,231.8,102.6,232.4z"/>
	<path class="st13" d="M122.3,221.8c0.1,1.4,0.9,2.5,1.8,2.5s1.6-1.2,1.6-2.6s-0.9-2.5-1.8-2.5S122.2,220.4,122.3,221.8z"/>
	<path class="st13" d="M125.1,221.8L125.1,221.8c0.2,0,0.4-0.1,0.4-0.3c0.7-5.5-0.8-15.1-3.8-18.7c-0.1-0.2-0.3-0.2-0.4-0.1
		c-0.2,0.1-0.2,0.3-0.1,0.5c0,0,0,0.1,0.1,0.1c2.9,3.5,4.3,12.8,3.6,18.2C124.8,221.6,124.9,221.8,125.1,221.8z"/>
	<path class="st9" d="M121.3,221.7c0,1.2,0.7,2.2,1.6,2.2s1.6-1,1.6-2.2s-0.7-2.2-1.6-2.2S121.3,220.5,121.3,221.7z"/>
	<path class="st13" d="M121.2,221.8c0,1.5,0.6,2.7,1.3,2.7s1.2-1.2,1.2-2.7s-0.6-2.7-1.3-2.7S121.2,220.3,121.2,221.8z"/>
</g>
</svg>
