<?xml version="1.0" encoding="utf-8"?>
<!-- Generator: Adobe Illustrator 25.0.0, SVG Export Plug-In . SVG Version: 6.00 Build 0)  -->
<svg version="1.1" id="Livello_1" xmlns="http://www.w3.org/2000/svg" xmlns:xlink="http://www.w3.org/1999/xlink" x="0px" y="0px"
	 viewBox="0 0 500 500" style="enable-background:new 0 0 500 500;" xml:space="preserve">
<style type="text/css">
	.st0{fill:#407BFF;}
	.st1{opacity:0.9;fill:#FFFFFF;enable-background:new    ;}
	.st2{fill:#F5F5F5;}
	.st3{opacity:0.2;fill:#407BFF;enable-background:new    ;}
	.st4{fill:#FFFFFF;}
	.st5{opacity:0.2;enable-background:new    ;}
	.st6{opacity:0.2;fill:#263238;enable-background:new    ;}
	.st7{fill:#E0E0E0;}
	.st8{opacity:0.4;fill:#407BFF;enable-background:new    ;}
	.st9{opacity:0.3;fill:#407BFF;enable-background:new    ;}
	.st10{opacity:0.3;fill:#FFFFFF;enable-background:new    ;}
	.st11{fill:#263238;}
	.st12{opacity:0.1;fill:#407BFF;enable-background:new    ;}
	.st13{fill:#FFC3BD;}
	.st14{fill:#ED847E;}
	.st15{opacity:0.6;fill:#FFFFFF;enable-background:new    ;}
	.st16{opacity:0.5;fill:#407BFF;enable-background:new    ;}
	.st17{opacity:0.6;}
</style>
<g id="freepik--background-simple--inject-41">
	<path class="st0" d="M68.3,223.2c-60.2,102.6,62.7,202,149.6,135c27-20.8,25-62.6,56.3-83.8c31.9-21.6,77.2-12.5,110.9-31.9
		c78.6-45.3,54.1-154.3-27.4-187.8C266,17,111.4,149.7,68.3,223.2z"/>
	<path class="st1" d="M68.3,223.2c-60.2,102.6,62.7,202,149.6,135c27-20.8,25-62.6,56.3-83.8c31.9-21.6,77.2-12.5,110.9-31.9
		c78.6-45.3,54.1-154.3-27.4-187.8C266,17,111.4,149.7,68.3,223.2z"/>
</g>
<g id="freepik--Shadow--inject-41">
	<ellipse id="freepik--path--inject-41" class="st2" cx="250" cy="416.2" rx="193.9" ry="11.3"/>
</g>
<g id="freepik--sample-tube--inject-41">
	<path class="st0" d="M168.8,341.9c-9.8,2.5-19.8-3.3-22.4-13.1L106,174.1c0,0,8.2-5.6,17.7-4.6c6.2,0.4,12.4-0.6,18.2-2.9l40,153
		C184.5,329.3,178.6,339.3,168.8,341.9z"/>
	<g>
		<path class="st3" d="M87,125.3l53.7,205c3.4,13,16.7,20.7,29.7,17.4l0,0c13-3.4,20.7-16.7,17.4-29.7l-53.7-205L87,125.3z"/>
		
			<rect x="114.7" y="138.8" transform="matrix(0.9674 -0.2533 0.2533 0.9674 -39.201 36.9816)" class="st4" width="18.7" height="64"/>
	</g>
	<g>
		<rect x="131.5" y="79" transform="matrix(0.9674 -0.2533 0.2533 0.9674 -16.6659 36.1375)" class="st0" width="1" height="7.6"/>
		<path class="st0" d="M129.4,74.5L125.3,59c-0.5-2.1-2.4-3.5-4.6-3.5c-0.4,0-0.8,0.1-1.2,0.2l-9.1,2.4l-0.2-1l9.1-2.4
			c0.5-0.1,1-0.2,1.5-0.2c2.6,0,4.9,1.8,5.6,4.3l4,15.5L129.4,74.5z"/>
		<path class="st0" d="M72.2,70.6l47.9-12.5c1.2-0.3,2.4,0.4,2.7,1.6l13.1,50.1l0,0l-52.2,13.7l0,0L70.6,73.4
			C70.3,72.2,71,70.9,72.2,70.6C72.2,70.6,72.2,70.6,72.2,70.6z"/>
		
			<rect x="101.7" y="63.4" transform="matrix(0.9674 -0.2533 0.2533 0.9674 -19.547 29.0424)" class="st5" width="2.7" height="54"/>
		
			<rect x="111.4" y="61.5" transform="matrix(0.9684 -0.2496 0.2496 0.9684 -18.5245 30.9324)" class="st5" width="2.7" height="54.1"/>
		<rect x="121" y="58.4" transform="matrix(0.9674 -0.2533 0.2533 0.9674 -17.6369 33.775)" class="st5" width="2.7" height="54"/>
		<rect x="92" y="66" transform="matrix(0.9674 -0.2533 0.2533 0.9674 -20.5057 26.6727)" class="st5" width="2.7" height="54"/>
		
			<rect x="82.4" y="68.5" transform="matrix(0.9674 -0.2533 0.2533 0.9674 -21.4629 24.3086)" class="st5" width="2.7" height="54"/>
		<path class="st0" d="M82.8,119.9l52.2-13.7c1.8-0.5,3.6,0.6,4.1,2.4l1.8,6.9c0.5,1.8-0.6,3.6-2.4,4.1l-52.2,13.7
			c-1.8,0.5-3.6-0.6-4.1-2.4l-1.8-6.9C80,122.2,81,120.3,82.8,119.9z"/>
	</g>
</g>
<path class="st5" d="M143.5,262.1c0,2.4-1.9,4.3-4.3,4.3c-2.4,0-4.3-1.9-4.3-4.3c0-2.4,1.9-4.3,4.3-4.3
	C141.6,257.8,143.5,259.8,143.5,262.1z"/>
<path class="st0" d="M141.1,262.1c0,1.1-0.8,1.9-1.9,1.9c-1.1,0-1.9-0.8-1.9-1.9s0.8-1.9,1.9-1.9c0,0,0,0,0,0
	C140.3,260.2,141.1,261.1,141.1,262.1z"/>
<path class="st5" d="M144.6,216.3c0,1.4-1.1,2.6-2.5,2.6c-1.4,0-2.6-1.1-2.6-2.5c0-1.4,1.1-2.6,2.5-2.6c0,0,0,0,0,0
	C143.5,213.8,144.6,214.9,144.6,216.3z"/>
<path class="st0" d="M143.2,216.3c0,0.6-0.5,1.1-1.1,1.1c-0.6,0-1.1-0.5-1.1-1.1c0-0.6,0.5-1.1,1.1-1.1c0,0,0,0,0,0
	C142.7,215.2,143.2,215.7,143.2,216.3z"/>
<circle class="st5" cx="154.8" cy="309.7" r="5.5"/>
<circle class="st0" cx="154.8" cy="309.7" r="2.5"/>
<circle class="st5" cx="160.1" cy="285.2" r="3.1"/>
<path class="st0" d="M161.5,285.2c0,0.8-0.6,1.4-1.4,1.4c-0.8,0-1.4-0.6-1.4-1.4s0.6-1.4,1.4-1.4c0,0,0,0,0,0
	C160.9,283.9,161.5,284.5,161.5,285.2z"/>
<circle class="st5" cx="169.5" cy="325" r="3.7"/>
<path class="st0" d="M171.1,325c0,0.9-0.7,1.6-1.6,1.6s-1.6-0.7-1.6-1.6c0-0.9,0.7-1.6,1.6-1.6S171.1,324.1,171.1,325L171.1,325z"/>
<path class="st5" d="M145.9,237.9c0,2.4-1.9,4.3-4.3,4.3s-4.3-1.9-4.3-4.3c0-2.4,1.9-4.3,4.3-4.3h0
	C144,233.6,145.9,235.5,145.9,237.9z"/>
<path class="st0" d="M144.6,237.9c0,1.7-1.3,3-3,3s-3-1.3-3-3s1.3-3,3-3l0,0C143.3,234.9,144.6,236.2,144.6,237.9z"/>
<path class="st5" d="M155.6,255.1c0,1.7-1.3,3-3,3s-3-1.3-3-3c0-1.7,1.3-3,3-3S155.6,253.5,155.6,255.1z"/>
<path class="st0" d="M154.8,255.1c0,1.2-0.9,2.2-2.1,2.2c-1.2,0-2.2-0.9-2.2-2.1c0-1.2,0.9-2.2,2.1-2.2c0,0,0,0,0,0
	C153.8,253,154.7,253.9,154.8,255.1z"/>
<g id="freepik--Test--inject-41">
	<g>
		<polygon class="st4" points="280.1,73.5 262.5,292.3 393.9,302.9 431.3,271.1 446.2,86.9 		"/>
		<g>
			<path class="st0" d="M393.9,303.9L393.9,303.9l-131.5-10.6c-0.5,0-0.9-0.5-0.8-1c0,0,0,0,0,0l17.7-218.8c0-0.5,0.5-0.9,1-0.8
				c0,0,0,0,0,0l166,13.4c0.5,0,0.9,0.5,0.8,1c0,0,0,0,0,0l-14.9,184.2c0,0.2-0.1,0.5-0.3,0.6l-37.4,31.8
				C394.4,303.8,394.2,303.8,393.9,303.9z M263.5,291.5L393.6,302l36.8-31.3l14.8-182.9L281,74.5L263.5,291.5z"/>
			<path class="st6" d="M314.3,239h-0.2l-22.6-1.8c-1-0.1-1.8-1-1.7-2c0,0,0,0,0,0l1.8-22.6c0.1-1,1-1.8,2-1.7c0,0,0,0,0,0l22.6,1.8
				c1,0.1,1.8,1,1.7,2c0,0,0,0,0,0l-1.8,22.6c0,0.5-0.3,0.9-0.6,1.2C315.2,238.8,314.7,239,314.3,239z M293.6,233.6l19,1.5l1.5-19
				l-19-1.5L293.6,233.6z"/>
			<path class="st7" d="M400.8,230h-0.2l-73.9-6c-1-0.1-1.8-1-1.7-2c0.1-1,1-1.8,2-1.7l0,0l73.9,6c1,0,1.8,0.9,1.8,1.9
				C402.6,229.3,401.8,230,400.8,230L400.8,230L400.8,230z"/>
			<path class="st7" d="M349.8,235.1h-0.2l-23.7-1.9c-1,0-1.8-0.9-1.8-1.9c0-1,0.9-1.8,1.9-1.8c0.1,0,0.2,0,0.2,0l23.7,1.9
				c1,0,1.8,0.9,1.8,1.9C351.6,234.4,350.8,235.1,349.8,235.1L349.8,235.1z"/>
			<path class="st7" d="M384.7,237.9h-0.2l-20.5-1.7c-1-0.1-1.8-1-1.7-2c0.1-1,1-1.8,2-1.7l0,0l20.5,1.6c1,0,1.8,0.9,1.8,1.9
				C386.5,237.2,385.6,238,384.7,237.9L384.7,237.9z"/>
			<path class="st6" d="M311.1,279.2h-0.2l-22.6-1.8c-1-0.1-1.8-1-1.7-2c0,0,0,0,0,0l1.8-22.6c0.1-1,1-1.8,2-1.7c0,0,0,0,0,0
				L313,253c1,0.1,1.8,1,1.7,2c0,0,0,0,0,0l-1.8,22.6c0,0.5-0.3,0.9-0.6,1.2C311.9,279.1,311.5,279.3,311.1,279.2z M290.4,273.9
				l19,1.5l1.5-19l-19-1.5L290.4,273.9z"/>
			<path class="st7" d="M384.2,269.2h-0.2l-60.7-4.9c-1-0.1-1.8-1-1.7-2c0.1-1,1-1.8,2-1.7l60.7,4.9c1,0,1.8,0.9,1.8,1.9
				C386.1,268.4,385.2,269.2,384.2,269.2L384.2,269.2z"/>
			<path class="st7" d="M359.9,276.4h-0.2l-37.1-3c-1,0-1.8-0.9-1.8-1.9c0-1,0.9-1.8,1.9-1.8c0.1,0,0.2,0,0.2,0l37.1,3
				c1,0,1.8,0.9,1.8,1.9C361.8,275.6,360.9,276.4,359.9,276.4L359.9,276.4z"/>
		</g>
	</g>
	<g>
		<path class="st0" d="M365.8,103.4h-0.3l-8.4-0.7c-1.8,0-3.2-1.5-3.1-3.3s1.5-3.2,3.3-3.1c0.1,0,0.2,0,0.4,0L366,97
			c1.8,0.2,3,1.8,2.9,3.5C368.7,102.1,367.4,103.3,365.8,103.4L365.8,103.4z"/>
		<path class="st0" d="M357.9,201.8h-0.3l-8.4-0.7c-1.8-0.1-3.2-1.5-3.1-3.3c0.1-1.8,1.5-3.2,3.3-3.1c0.1,0,0.2,0,0.3,0l8.4,0.7
			c1.8,0.2,3,1.8,2.9,3.5C360.8,200.6,359.5,201.8,357.9,201.8L357.9,201.8z"/>
		<path class="st0" d="M406.5,160.5h-0.3c-1.8-0.1-3.1-1.7-2.9-3.5c0,0,0,0,0,0l0.7-8.4c0.2-1.8,1.9-3,3.6-2.8
			c1.6,0.2,2.8,1.6,2.8,3.3l-0.7,8.4C409.5,159.2,408.2,160.4,406.5,160.5z"/>
		<path class="st0" d="M308.1,152.5h-0.3c-1.8-0.1-3.1-1.7-2.9-3.5c0,0,0,0,0,0l0.7-8.4c0.1-1.8,1.5-3.2,3.3-3.1
			c1.8,0.1,3.2,1.5,3.1,3.3c0,0.1,0,0.2,0,0.3l-0.7,8.4C311.1,151.2,309.8,152.5,308.1,152.5z"/>
		<path class="st0" d="M322.5,117.4c-1.8,0-3.2-1.4-3.2-3.2c0-0.9,0.4-1.8,1.1-2.5l6.4-5.5c1.3-1.2,3.3-1.1,4.5,0.2
			c1.2,1.3,1.1,3.3-0.2,4.5c-0.1,0.1-0.1,0.1-0.2,0.2l-6.4,5.4C323.9,117.1,323.2,117.4,322.5,117.4z"/>
		<path class="st0" d="M386.4,192.6c-1,0-1.9-0.4-2.5-1.1c-1.1-1.3-1-3.4,0.4-4.5c0,0,0,0,0,0l6.4-5.4c1.4-1.1,3.4-1,4.5,0.4
			c1.1,1.4,1,3.4-0.4,4.5l0,0l-6.4,5.4C387.9,192.3,387.2,192.6,386.4,192.6z"/>
		<path class="st0" d="M398,123.5c-0.9,0-1.8-0.4-2.5-1.1L390,116c-1.1-1.4-1-3.4,0.4-4.5c1.4-1.1,3.4-1,4.5,0.4l5.5,6.4
			c1.2,1.3,1,3.4-0.3,4.5C399.4,123.3,398.7,123.5,398,123.5L398,123.5z"/>
		<path class="st0" d="M322.8,187.5c-1,0-1.9-0.4-2.5-1.1l-5.5-6.4c-1.1-1.4-1-3.4,0.4-4.5c1.4-1.1,3.4-1,4.5,0.4l0,0l5.5,6.4
			c1.2,1.3,1,3.4-0.4,4.5c0,0,0,0,0,0C324.2,187.2,323.5,187.5,322.8,187.5z"/>
		<path class="st0" d="M358,191.9c-1.3,0-2.5,0-3.8-0.1c-23.5-1.9-41.1-22.5-39.2-46.1c1.9-23.5,22.5-41.1,46.1-39.2
			s41.1,22.5,39.2,46.1c0,0,0,0,0,0l-1.8-0.1l1.8,0.1C398.5,174.6,380.1,191.7,358,191.9z M357.3,110c-21.5,0.2-38.8,17.8-38.6,39.4
			s17.8,38.8,39.4,38.6c21.5-0.2,38.8-17.8,38.6-39.4c-0.2-20.2-15.8-36.9-35.9-38.5C359.6,110,358.4,110,357.3,110z"/>
		<path class="st0" d="M320,184.3c-1,0-1.9-0.4-2.5-1.1c-1.1-1.3-1-3.4,0.4-4.5c0,0,0,0,0,0l6.4-5.4c1.3-1.2,3.3-1.1,4.5,0.2
			c1.2,1.3,1.1,3.3-0.2,4.5c-0.1,0.1-0.1,0.1-0.2,0.2l-6.4,5.4C321.5,184,320.8,184.3,320,184.3z"/>
		<path class="st0" d="M406.8,156.3h-0.3l-8.4-0.7c-1.8-0.1-3.1-1.7-2.9-3.5s1.7-3.1,3.5-2.9l8.4,0.7c1.8,0.1,3.1,1.7,2.9,3.5
			C409.9,155,408.5,156.3,406.8,156.3L406.8,156.3z"/>
		<path class="st0" d="M316.8,149h-0.3l-8.4-0.7c-1.8-0.1-3.2-1.5-3.1-3.3c0.1-1.8,1.5-3.2,3.3-3.1c0.1,0,0.2,0,0.3,0l8.4,0.7
			c1.8,0.2,3,1.8,2.8,3.5C319.7,147.7,318.4,149,316.8,149L316.8,149z"/>
		<path class="st0" d="M331.1,121.1c-1,0-1.9-0.4-2.5-1.1l-5.5-6.4c-1.1-1.4-1-3.4,0.4-4.5c1.4-1.1,3.4-1,4.5,0.4l0,0l5.5,6.4
			c1.1,1.4,1,3.4-0.4,4.5C332.6,120.8,331.9,121.1,331.1,121.1z"/>
		<path class="st0" d="M389.6,189.9c-0.9,0-1.9-0.4-2.5-1.1l-5.5-6.4c-1.1-1.4-1-3.4,0.4-4.5c1.4-1.1,3.4-1,4.5,0.4l0,0l5.4,6.4
			c1.1,1.4,1,3.4-0.4,4.5C391,189.6,390.3,189.9,389.6,189.9L389.6,189.9z"/>
		<path class="st0" d="M388.8,125.8c-1.8,0-3.2-1.4-3.2-3.2c0-0.9,0.4-1.8,1.1-2.5l6.4-5.5c1.4-1.1,3.4-1,4.5,0.4
			c1.1,1.4,1,3.4-0.4,4.5l0,0l-6.4,5.5C390.3,125.5,389.6,125.8,388.8,125.8z"/>
		<path class="st0" d="M360.9,111.5h-0.3c-1.8-0.1-3.1-1.7-2.9-3.4l0.7-8.4c0.1-1.8,1.7-3.1,3.5-2.9c1.8,0.1,3.1,1.7,2.9,3.5
			l-0.7,8.4C364,110.2,362.6,111.5,360.9,111.5z"/>
		<path class="st0" d="M353.7,201.5h-0.3c-1.8-0.1-3.1-1.7-2.9-3.4c0,0,0,0,0,0l0.7-8.4c0-1.8,1.5-3.2,3.3-3.1
			c1.8,0,3.2,1.5,3.1,3.3c0,0.1,0,0.2,0,0.4l-0.7,8.4C356.7,200.2,355.3,201.5,353.7,201.5z"/>
		<circle class="st4" cx="357.6" cy="149.1" r="40.9"/>
	</g>
	<path class="st3" d="M372.3,154.6c-0.4,0-0.8,0-1.2,0c-7.4-0.6-12.8-7-12.2-14.4c0.6-7.4,7-12.8,14.4-12.3
		c7.3,0.6,12.8,7,12.3,14.3C385,149.3,379.2,154.6,372.3,154.6L372.3,154.6z M372.1,132.9c-4.6,0-8.4,3.8-8.3,8.4
		c0,4.6,3.8,8.4,8.4,8.3c4.4,0,8-3.4,8.3-7.8l0,0c0.4-4.6-3.1-8.6-7.7-9C372.6,132.9,372.4,132.9,372.1,132.9z"/>
	<path class="st8" d="M342.1,145.9c-0.3,4.1-3.9,7.2-8,6.9c-4.1-0.3-7.2-3.9-6.9-8c0.3-4.1,3.9-7.2,8-6.9c0,0,0,0,0,0
		C339.4,138.2,342.5,141.8,342.1,145.9z"/>
	<path class="st3" d="M362.3,169.8c-0.2,2.9-2.8,5.1-5.7,4.8s-5.1-2.8-4.8-5.7c0.2-2.9,2.8-5.1,5.7-4.8
		C360.4,164.4,362.5,166.9,362.3,169.8z"/>
	
		<rect x="437.7" y="186.3" transform="matrix(8.054691e-02 -0.9968 0.9968 8.054691e-02 219.4223 611.428)" class="st0" width="6.8" height="1"/>
	
		<rect x="432.8" y="165.5" transform="matrix(8.054691e-02 -0.9968 0.9968 8.054691e-02 241.7143 594.0427)" class="st0" width="20.1" height="1"/>
	<polygon class="st3" points="390.2,270.4 393.9,302.9 431.3,271.1 	"/>
	<polygon class="st4" points="396.7,268.4 393.9,302.9 431.3,271.1 	"/>
	<path class="st0" d="M393.9,303.9c-0.1,0-0.3,0-0.4-0.1c-0.3-0.2-0.5-0.5-0.5-0.9l2.8-34.6c0-0.2,0.1-0.5,0.3-0.6
		c0.2-0.2,0.4-0.2,0.7-0.2l34.6,2.8c0.4,0,0.7,0.3,0.8,0.6c0.1,0.4,0,0.8-0.3,1l-37.4,31.8C394.4,303.8,394.2,303.9,393.9,303.9z
		 M397.6,269.3l-2.6,31.5l34-28.9L397.6,269.3z"/>
</g>
<g id="freepik--Character--inject-41">
	<g>
		
			<ellipse transform="matrix(0.3214 -0.9469 0.9469 0.3214 -107.0113 263.5903)" class="st9" cx="130.4" cy="206.5" rx="43.8" ry="51.8"/>
		
			<rect x="80" y="191.6" transform="matrix(0.7192 -0.6948 0.6948 0.7192 -104.0073 141.5555)" class="st10" width="86.3" height="15.6"/>
		
			<rect x="93.6" y="206.8" transform="matrix(0.7192 -0.6948 0.6948 0.7192 -109.2584 155.5107)" class="st10" width="88.3" height="12.2"/>
		<path class="st11" d="M135.6,254.7c-7,0-13.9-1.2-20.4-3.4c-13.9-4.7-25.4-13.8-32.4-25.4c-7.2-11.9-8.8-25-4.7-37.1
			s13.4-21.5,26.3-26.6c12.7-5,27.3-5.1,41.2-0.4s25.4,13.7,32.4,25.4c7.1,11.9,8.8,25.1,4.7,37.1s-13.5,21.5-26.4,26.6
			C149.8,253.4,142.8,254.7,135.6,254.7z M125.2,165.3c-6.2,0-12.4,1.1-18.2,3.4C96,173,88.1,180.9,84.7,191s-2,21.2,4.1,31.2
			c6.2,10.3,16.4,18.2,28.7,22.4s25.3,4.1,36.4-0.3c10.9-4.3,18.9-12.2,22.3-22.3s2-21.2-4.1-31.3c-6.2-10.3-16.4-18.2-28.7-22.4
			l0,0C137.5,166.4,131.4,165.3,125.2,165.3z"/>
		<path class="st11" d="M183.2,218.4c6.8,0.8,13.6,1.9,20.3,3.4c6.7,1.4,13.3,3.1,19.8,4.9s13,3.8,19.5,5.9c3.2,1.1,6.5,1.9,9.5,3.7
			c1.5,0.9,3,2,4.2,3.3c0.7,0.7,1.3,1.4,1.9,2.2c0.7,0.9,1.2,1.8,1.7,2.8c1.9,4,0.3,8.8-3.6,10.7c-1,0.5-2,0.9-3.1,1.2
			c-0.9,0.3-1.9,0.5-2.9,0.6c-1.8,0.2-3.6,0.2-5.4,0c-3.4-0.4-6.5-1.8-9.8-2.9c-6.4-2.2-12.7-4.6-19-7.2s-12.5-5.3-18.7-8.2
			c-6.2-2.9-12.3-6.1-18.2-9.7c-2.7-1.7-3.6-5.3-1.9-8C178.8,219.2,181,218.2,183.2,218.4L183.2,218.4z"/>
		<path class="st0" d="M201.2,226.9l3.6,3.6c1.9,5.3-5.6,8.2-5.6,8.2l-3.4,2.8c-1,1-2.7,1-3.7,0l-2.5-2.5c-1.2-1.2-1.2-3.2,0-4.4
			l2.6-2.9c0.7-0.8,1.6-1.5,2.6-1.9L201.2,226.9z"/>
		<path class="st0" d="M202.6,226.5c-4-1.8-7.7,1.3-11,2.9c-0.6,0.3-0.8,1.9,0.2,2.1c1.3,0.3,2.7,0.1,3.8-0.6
			c0.8,1.1,4.3,2.9,7.8-0.2C203.8,229.2,203.5,227.7,202.6,226.5z"/>
	</g>
	<g>
		<path class="st12" d="M244,147.6c0.7,4.1-0.9,7.1-3.7,6.8s-5.6-3.9-6.3-8s1-7.1,3.7-6.8S243.3,143.5,244,147.6z"/>
		<path class="st11" d="M259,412c8.3-0.6,12.5-5.9,11.8-11.9c-0.4-3.3,10.2-4.4,10.2-4.4c-1.5,10.4,0.7,12.1,1.1,14.7s0.2,5.6-2,5.6
			c-2.6,0.1-3.8-0.4-7.1-0.3c-3.8,0.1-6.4,0.3-13.1,0.3C257.2,416.1,255.4,412.3,259,412z"/>
		<path class="st11" d="M333.2,406c4.9-8.4,0.9-13.9-2.7-18.4c-2.1-2.7,7.9-6.1,7.9-6.1c2.5,6.3,5,6.2,7.5,7.6s3.9,3.7,2.6,5.4
			c-1.6,2-3.1,1.9-5,4.4c-2.3,3-4.7,6.9-7.9,10.1C333.8,411,331.4,409.1,333.2,406z"/>
		<path class="st0" d="M237.1,236.7c0,0,1.4,42,11.6,77c4.5,30.3,21.9,87.4,21.9,87.4c3.6,0.9,7.4,0.8,11-0.1c0,0,5.6-44.1-6.1-92
			c7.6-51,2.4-77.1,2.4-77.1L237.1,236.7z"/>
		<path class="st0" d="M253.3,234.8c0,0,17.5,57.8,31,84.5c14.2,28.1,44.7,68,46.1,69.8c3.9-1.9,7.3-4,9.3-6.8
			c0,0-11.7-44.3-28.9-74.5c-13.5-66.5-22.6-77.2-22.6-77.2L253.3,234.8z"/>
		<path class="st13" d="M263.5,151.2c-0.7,5.9-1,15.5,1.9,20.2c0,0-7.6,1.3-17.4,11.3c-6-6.9-1.2-9-1.2-9c4.4-1.6,4.4-7.2,3.9-11.5
			L263.5,151.2z"/>
		<path class="st0" d="M231.8,190.3c-1.1-6.9,2.9-12.5,11.5-15.5c7.9-2.7,19.2-4.7,27.1-3.6s10.7,5,10.2,10.9
			c-2.2,25.6,7.5,40.7,7.7,48.5c-18.4,4.7-46.5,8.6-51.1,6.1c-3.3-3.5-2.7-25.3-1.6-28.6C227.3,203.9,232.4,194.2,231.8,190.3z"/>
		<path class="st11" d="M239.5,147.4c0.1,0.8-0.2,1.5-0.7,1.6s-1-0.5-1.1-1.3s0.2-1.5,0.7-1.6S239.4,146.6,239.5,147.4z"/>
		<path class="st11" d="M238.6,146.1l-2-0.2C236.6,145.9,237.9,147.2,238.6,146.1z"/>
		<path class="st14" d="M239.5,149c-0.4,1.9-1.1,3.7-2,5.4c0.9,0.4,1.9,0.5,2.9,0.1L239.5,149z"/>
		<path class="st11" d="M237.1,143.3c-0.2-0.1-0.3-0.4-0.2-0.6c0.1-0.1,0.2-0.2,0.3-0.2c1.4-0.4,3-0.1,4.1,0.9
			c0.2,0.2,0.2,0.5,0,0.6c-0.2,0.2-0.5,0.2-0.6,0c0,0,0,0,0,0c-0.9-0.7-2.1-1-3.3-0.6C237.3,143.3,237.2,143.3,237.1,143.3z"/>
		<path class="st13" d="M264.8,142.1c0.9,9.6,1.5,13.7-2.4,19.4c-6,8.5-17.8,7.5-21.5-1.7c-3.4-8.3-4.3-22.7,4.2-27.9
			C253.7,126.6,263.9,132.4,264.8,142.1z"/>
		<path class="st11" d="M245,148.1c-3.5,0.5-5-4.9-3.8-7.2c-4.1-0.1-4.9-3.9-3.5-6.6s4.7-8.9,16.8-7c12.1,1.9,16,12.3,15,16.8
			s1.1,16.8-10.2,18.9S241.1,153.8,245,148.1z"/>
		<path class="st0" d="M285.5,172c-6.2-6-29.5-3-46.4,2.4s-12.7,22.4-11.3,34.3s10.3,95.6,20.5,126c24.7,0.3,62.5-8,73-13.4
			c-4.1-10.9-26.2-95.7-29.8-118C289.8,192.4,292,178.3,285.5,172z"/>
		<path class="st15" d="M285.5,172c-6.2-6-29.5-3-46.4,2.4s-12.7,22.4-11.3,34.3s10.3,95.6,20.5,126c24.7,0.3,62.5-8,73-13.4
			c-4.1-10.9-26.2-95.7-29.8-118C289.8,192.4,292,178.3,285.5,172z"/>
		<path class="st16" d="M229.3,221.3c3.4-4.4,6.3-8.7,7.2-11.3c3.3-9.4-1.1,16.3-5.1,29.6C230.7,232.6,229.9,226.4,229.3,221.3z"/>
		<path class="st0" d="M249.9,190.1l-0.5,2.3l-0.5,2.2c-0.4,1.4-0.7,2.9-1.1,4.3c-0.8,2.9-1.7,5.7-2.6,8.6s-2,5.7-3.2,8.5
			c-0.6,1.4-1.2,2.8-1.9,4.2l-1,2.1l-0.6,1.2c-0.3,0.6-0.6,1.1-0.9,1.6c-2.5,4.2-6.3,7.5-10.8,9.4l-0.4,0.2l-0.3,0.1l-0.6,0.2
			l-1.2,0.4l-2.4,0.7l-2.3,0.6l-2.3,0.6c-3,0.7-6,1.2-8.9,1.6c-1.5,0.2-2.9,0.4-4.4,0.5s-2.9,0.3-4.5,0.4l-2.5-14.6l3.8-1.2
			c1.3-0.4,2.6-0.9,3.8-1.3c2.5-0.9,5-1.8,7.4-2.7l1.8-0.7l1.7-0.7l1.6-0.8l0.7-0.4l0.4-0.2l0.2-0.1l0.1-0.1c0.6-0.5,1.1-1.2,1.4-2
			c0-0.1,0.1-0.2,0.1-0.3v-0.1l0.1-0.2l0.1-0.4l0.6-1.8c0.4-1.2,0.8-2.4,1.2-3.7c0.8-2.5,1.4-5,2.1-7.6s1.3-5.1,1.9-7.8
			c0.3-1.3,0.6-2.6,0.9-3.9l0.8-3.8L249.9,190.1z"/>
		<g class="st17">
			<path class="st4" d="M249.9,190.1l-0.5,2.3l-0.5,2.2c-0.4,1.4-0.7,2.9-1.1,4.3c-0.8,2.9-1.7,5.7-2.6,8.6s-2,5.7-3.2,8.5
				c-0.6,1.4-1.2,2.8-1.9,4.2l-1,2.1l-0.6,1.2c-0.3,0.6-0.6,1.1-0.9,1.6c-2.5,4.2-6.3,7.5-10.8,9.4l-0.4,0.2l-0.3,0.1l-0.6,0.2
				l-1.2,0.4l-2.4,0.7l-2.3,0.6l-2.3,0.6c-3,0.7-6,1.2-8.9,1.6c-1.5,0.2-2.9,0.4-4.4,0.5s-2.9,0.3-4.5,0.4l-2.5-14.6l3.8-1.2
				c1.3-0.4,2.6-0.9,3.8-1.3c2.5-0.9,5-1.8,7.4-2.7l1.8-0.7l1.7-0.7l1.6-0.8l0.7-0.4l0.4-0.2l0.2-0.1l0.1-0.1c0.6-0.5,1.1-1.2,1.4-2
				c0-0.1,0.1-0.2,0.1-0.3v-0.1l0.1-0.2l0.1-0.4l0.6-1.8c0.4-1.2,0.8-2.4,1.2-3.7c0.8-2.5,1.4-5,2.1-7.6s1.3-5.1,1.9-7.8
				c0.3-1.3,0.6-2.6,0.9-3.9l0.8-3.8L249.9,190.1z"/>
		</g>
		<path class="st16" d="M266.2,230.7c0,0,16.5-2.3,21.3-5.5C281.6,230.4,273.7,231.5,266.2,230.7z"/>
		<path class="st16" d="M268,232.6c0,0,12.1,0.1,15.9-1.7C279.1,234,273.3,233.9,268,232.6z"/>
		<path class="st0" d="M238.6,150.4c-1.2,3.1-2.5,6.6-1.6,10.4s4.7,5.8,10.7,5.8c-0.6-2.5-3.4-4-5.5-7.8s0-12.5,0-12.5l-0.8-0.6
			c-0.9,2.2-1.6,4.4-2.1,6.7C238.4,150.8,238.6,150.4,238.6,150.4z"/>
		<path class="st10" d="M238.6,150.4c-1.2,3.1-2.5,6.6-1.6,10.4s4.7,5.8,10.7,5.8c-0.6-2.5-3.4-4-5.5-7.8s0-12.5,0-12.5l-0.8-0.6
			c-0.9,2.2-1.6,4.4-2.1,6.7C238.4,150.8,238.6,150.4,238.6,150.4z"/>
		<path class="st13" d="M247.7,150.7c-0.2,1.9-1.3,3.5-2.9,4.5c-2,1.1-3.6-1.4-3.6-4.1c0-2.5,1-6.1,3.3-6S248.1,148.1,247.7,150.7z"
			/>
		<path class="st0" d="M237.2,135.6c0.7,4.5,5.8,17.4,13.5,22.5c7,4.7,14.3,5.2,16.6,0.2c0,0,8.6,2.9,10.7-13.7
			c1.8-14.2-8.5-24.3-19.7-26C248.2,117,228.2,121.6,237.2,135.6z"/>
		<path class="st5" d="M238.1,136c0,0,7.8,14.6,28.4,21.6C254.4,156.5,244.8,147.3,238.1,136z"/>
	</g>
</g>
</svg>
